<?xml version="1.0" encoding="UTF-8"?>
<svg width="793px" height="615px" viewBox="0 0 793 615" version="1.1" xmlns="http://www.w3.org/2000/svg" xmlns:xlink="http://www.w3.org/1999/xlink">
    <title>ic3</title>
    <g id="Page-1" stroke="none" stroke-width="1" fill="none" fill-rule="evenodd">
        <g id="Professional" transform="translate(130.000000, -2722.000000)">
            <g id="ic3" transform="translate(-130.000000, 2722.000000)">
                <circle id="Oval" fill="#F47824" opacity="0.0984235491" cx="307.5" cy="307.5" r="307.5"></circle>
                <g id="Analytics-pana" transform="translate(291.000000, 38.000000)" fill-rule="nonzero">
                    <g id="freepik--background-complete--inject-37" transform="translate(92.000000, 0.000000)">
                        <rect id="Rectangle" fill="#F0F0F0" x="11.5780685" y="0.132256809" width="74.9272897" height="74.9174708" rx="2.75"></rect>
                        <path d="M70.9330841,18.6241634 L70.8489097,18.6241634 C68.3116511,18.6241634 66.2553894,18.7804669 66.2553894,18.9848638 C67.5989009,19.3195683 68.9866398,19.4412838 70.3679128,19.3455642 C70.1394393,19.5860311 69.8027414,19.9347082 69.3818692,20.4036187 L65.7743925,24.4915564 L53.7494704,38.294358 L48.6869782,34.8677043 C47.785109,34.2785603 46.8952648,33.6653696 46.0655452,33.1243191 L45.788972,32.9559922 L45.5845483,33.1964591 C40.2334579,39.4485992 35.4956386,45.0394553 32.1166355,49.0792996 L28.1604361,53.8886381 C27.6506597,54.447766 27.1918872,55.0513349 26.789595,55.6921401 C27.3513206,55.2007718 27.8777129,54.6704307 28.3648598,54.1050584 L32.4894081,49.4640467 C35.9165109,45.5564591 40.6423053,40.1098833 45.9212461,33.9659533 L48.3262305,35.5410117 L53.653271,39.0758755 L53.9178193,39.2562257 L54.122243,39.0157588 L66.1471651,24.8161868 L69.6223676,20.5959922 C70.0793146,20.0429183 70.3919626,19.6341245 70.5843614,19.3936576 L70.644486,19.3936576 C70.5424218,20.786072 70.6601016,22.1858725 70.9932087,23.5417121 C71.1976324,23.5417121 71.3539564,21.5338132 71.3659813,19.0329572 L71.3659813,18.6722568 L70.9330841,18.6241634 Z" id="Path" fill="#E0E0E0"></path>
                        <path d="M260.77053,50.1373541 L297.422492,50.1373541 C297.423938,70.269444 281.183027,86.6331979 261.048879,86.7860887 C240.914731,86.9389794 224.427122,70.823753 224.122755,50.6939634 C223.818388,30.5641737 239.811241,13.9579641 259.94081,13.5022179 L260.77053,50.1373541 Z" id="Path" fill="#F0F0F0"></path>
                        <path d="M270.642991,41.2040078 L269.825296,4.55684491 C279.615883,4.55278204 289.043834,8.2607383 296.207975,14.9329961 C303.065645,21.7606616 307.03152,30.9657961 307.282928,40.6389105 L270.642991,41.2040078 Z" id="Path" fill="#EBEBEB"></path>
                        <path d="M275.693458,200.99428 C275.489034,207.727354 275.873832,228.26323 275.873832,228.26323 L281.886293,222.251556 L315.736449,222.251556 C316.920521,222.244942 317.876885,221.283313 317.876885,220.099377 L317.876885,201.10249 C317.876885,199.920515 316.918579,198.962283 315.736449,198.962283 L277.845919,198.962283 C276.700151,198.954434 275.751364,199.850099 275.693458,200.99428 L275.693458,200.99428 Z" id="Path" fill="#EBEBEB"></path>
                        <path d="M292.985296,210.600934 C292.978667,211.475859 292.265104,212.180383 291.39005,212.175993 C290.514996,212.171561 289.808574,211.459881 289.810762,210.584933 C289.81296,209.709985 290.522941,209.001829 291.398006,209.001829 C291.821073,209.001829 292.22664,209.170676 292.524662,209.470917 C292.822685,209.771158 292.988501,210.177934 292.985296,210.600934 L292.985296,210.600934 Z" id="Path" fill="#E0E0E0"></path>
                        <path d="M298.348411,210.600934 C298.348393,211.248802 297.957418,211.83264 297.358318,212.07943 C296.759217,212.32622 296.070391,212.187189 295.613951,211.727352 C295.157511,211.267515 295.023665,210.577748 295.275002,209.980606 C295.526339,209.383463 296.113187,208.996958 296.761121,209.001829 C297.184189,209.001817 297.589755,209.170676 297.887778,209.470917 C298.1858,209.771158 298.351616,210.177934 298.348411,210.600934 L298.348411,210.600934 Z" id="Path" fill="#E0E0E0"></path>
                        <path d="M303.711526,210.600934 C303.711526,211.247711 303.321866,211.830803 302.724243,212.078314 C302.12662,212.325825 301.438726,212.189013 300.981326,211.731672 C300.523925,211.274331 300.387094,210.586527 300.634638,209.988983 C300.882181,209.391438 301.465349,209.001829 302.112212,209.001829 C302.995489,209.001829 303.711526,209.717773 303.711526,210.600934 L303.711526,210.600934 Z" id="Path" fill="#E0E0E0"></path>
                        <path d="M0.0581931464,307.857782 C0.960062305,296.159066 9.56990654,278.051907 20.151838,272.990078 C30.9946082,267.89378 43.7081659,268.8047 53.7133956,275.394747 C60.3391277,279.867432 65.3655452,286.684669 72.6165732,290.051206 C86.9623053,296.71214 103.989595,287.273813 114.006355,275.034047 C124.023115,262.79428 130.300125,247.620817 141.663676,236.559339 C152.709516,225.80954 167.623322,219.966344 183.032768,220.35102 C198.442214,220.735697 213.045809,227.315756 223.541371,238.603307 C231.249346,246.899416 236.299813,257.251518 242.492648,266.725914 C248.685483,276.200311 256.633956,285.326031 267.396262,288.872918 C282.174891,293.742374 298.853458,286.588482 309.31514,275.058093 C319.776822,263.527704 325.212087,248.390311 329.757508,233.505409 C334.302928,218.620506 338.283178,203.266693 346.592399,190.113152 C354.90162,176.959611 368.622056,166.066459 384.182305,165.669689 L384.182305,307.424942 L0.0581931464,307.857782 Z" id="Path" fill="#F0F0F0"></path>
                    </g>
                    <g id="freepik--Floor--inject-37" transform="translate(0.000000, 485.000000)" fill="#263238">
                        <path d="M501.411531,1.1 C501.411531,1.24 389.290191,1.36 251.01201,1.36 C112.733828,1.36 0.5884689,1.24 0.5884689,1.1 C0.5884689,0.96 112.685789,0.84 251.01201,0.84 C389.33823,0.84 501.411531,1 501.411531,1.1 Z" id="Path"></path>
                    </g>
                    <g id="freepik--Charts--inject-37" transform="translate(160.000000, 37.000000)">
                        <path d="M246.817464,146.213179 C247.060715,146.181924 247.301491,146.133714 247.538038,146.068902 C248.217659,145.831998 248.755369,145.302506 249.003206,144.626127 C249.14917,144.114721 249.194044,143.579712 249.135311,143.051098 C249.135311,142.461965 249.135311,141.848786 249.135311,141.115376 C249.135311,139.708671 249.135311,138.097572 249.135311,136.306127 C249.135311,129.008092 249.075263,118.475838 249.027225,105.490867 C249.027225,98.9743353 249.027225,91.8566474 249.027225,84.2099422 C249.027225,80.3745665 249.027225,76.4189595 249.027225,72.3431214 C249.027225,70.3112139 249.027225,68.243237 249.027225,66.1512139 C249.027225,65.1292486 249.027225,63.9990751 249.027225,63.0372254 C248.865805,62.072087 248.057654,61.347925 247.081675,61.2938728 L191.069043,61.2938728 C189.938002,61.2934052 189.011879,62.1939306 188.979378,63.3257803 C188.979378,64.5280925 188.979378,65.7304046 188.979378,67.0048555 L188.979378,88.5863584 C188.979378,97.9523699 188.979378,106.981734 188.979378,115.590289 C188.979378,124.198844 188.979378,132.422659 188.979378,140.009249 L188.979378,142.858728 C188.942806,143.310859 188.942806,143.76521 188.979378,144.217341 C189.048951,144.626009 189.241722,145.003593 189.531818,145.299422 C189.817464,145.601821 190.184566,145.814814 190.58866,145.912601 C191.017852,145.9766 191.452432,145.996742 191.885694,145.972717 L204.771962,145.972717 L235.552488,146.080925 L243.959187,146.14104 L246.132919,146.14104 L246.877512,146.14104 C246.877512,146.14104 246.625311,146.14104 246.132919,146.14104 L243.959187,146.14104 L235.552488,146.201156 L204.771962,146.297341 L194.575837,146.297341 L191.885694,146.297341 C191.412105,146.325552 190.936853,146.301359 190.468565,146.225202 C189.971156,146.11302 189.519119,145.853224 189.171531,145.479769 C188.810699,145.110278 188.568173,144.641423 188.474976,144.133179 C188.43995,143.652894 188.43995,143.17069 188.474976,142.690405 L188.474976,139.840925 C188.474976,132.19422 188.474976,124.018497 188.474976,115.421965 C188.474976,106.825434 188.474976,97.7840462 188.474976,88.4180347 C188.474976,83.7450482 188.474976,78.9838921 188.474976,74.1345665 L188.474976,66.8365318 C188.474976,65.6342197 188.474976,64.4319075 188.474976,63.1334104 C188.520407,61.6656948 189.722374,60.5003465 191.189139,60.5003465 L247.117703,60.5003465 C248.355144,60.5784526 249.375472,61.5002761 249.579665,62.7246243 C249.663732,63.9269364 249.579665,64.8647399 249.579665,65.9347977 L249.579665,72.1267052 C249.579665,76.2025434 249.579665,80.1581503 249.579665,83.993526 C249.579665,91.6402312 249.579665,98.7579191 249.579665,105.274451 C249.579665,118.259422 249.507608,128.791676 249.483589,136.089711 C249.483589,137.905202 249.483589,139.516301 249.483589,140.89896 C249.483589,141.596301 249.483589,142.245549 249.483589,142.834682 C249.530191,143.377531 249.473131,143.924298 249.315455,144.44578 C249.051075,145.155501 248.468115,145.699022 247.742201,145.912601 C247.467299,146.09575 247.147401,146.19973 246.817464,146.213179 L246.817464,146.213179 Z" id="Path" fill="#263238"></path>
                        <path d="M222.894402,77.8016185 C214.727895,75.9861272 205.756746,80.422659 203.462919,88.8508671 C201.253158,96.9424277 206.597416,106.392601 214.703876,108.592832 C222.978928,110.577939 231.430823,106.060701 234.38756,98.0726012 C237.293876,89.4279769 231.757464,80.1100578 223.398804,77.356763 C222.438038,77.0321387 222.053732,78.5590751 222.990478,78.8716763 C230.112153,81.4806936 235.22823,89.1754913 233.090526,96.9063584 C231.072919,104.240462 222.486077,109.145896 215.160239,107.19815 C208.110622,105.322543 203.558995,97.7479769 204.459713,90.6904046 C205.552584,82.0457803 214.691866,76.8758382 222.822344,78.2825434 C223.122584,78.2825434 223.254689,77.8857803 222.95445,77.8256647 L222.894402,77.8016185 Z" id="Path" fill="#263238"></path>
                        <path d="M214.775933,108.340347 C223.387644,110.885354 232.453441,106.080399 235.192201,97.5195376 C237.73823,88.742659 232.057703,79.2443931 223.5189,76.6353757 C221.54933,76.0342197 220.840766,78.943815 222.67823,79.6652023 C229.883971,82.502659 234.687799,90.3537572 231.853541,98.060578 C229.307512,104.913757 221.813541,108.220116 214.86,107.438613 C214.30756,107.366474 214.235502,108.232139 214.739904,108.376416 L214.775933,108.340347 Z" id="Path" fill="#FF725E"></path>
                        <path d="M235.588517,122.72 C235.588517,122.888324 228.166603,123.032601 218.991292,123.032601 C209.815981,123.032601 202.394067,122.888324 202.394067,122.72 C202.394067,122.551676 209.82799,122.407399 218.991292,122.407399 C228.154593,122.407399 235.588517,122.551676 235.588517,122.72 Z" id="Path" fill="#FF725E"></path>
                        <path d="M235.588517,127.757688 C235.588517,127.938035 228.166603,128.070289 218.991292,128.070289 C209.815981,128.070289 202.394067,127.938035 202.394067,127.757688 C202.394067,127.577341 209.82799,127.445087 218.991292,127.445087 C228.154593,127.445087 235.588517,127.589364 235.588517,127.757688 Z" id="Path" fill="#FF725E"></path>
                        <path d="M9.32822967,8.6566474 L9.32822967,119.822428 C9.33482843,122.289836 11.3311628,124.288423 13.7957895,124.295029 L161.705646,124.295029 C164.170273,124.288423 166.166607,122.289836 166.173206,119.822428 L166.173206,4.80924855 C166.173206,3.60191267 165.686504,2.44568193 164.822517,1.60336305 C163.95853,0.761044168 162.79109,0.304192052 161.58555,0.336647399 L13.6756938,4.18404624 C11.2580897,4.25544828 9.3336622,6.23526829 9.32822967,8.6566474 Z" id="Path" fill="#E0E0E0"></path>
                        <path d="M152.962679,28.1100578 C152.962679,28.230289 151.077177,27.1602312 147.498325,26.0300578 C142.424309,24.4460425 137.057481,24.0349573 131.801818,24.8277457 C128.210707,25.3966503 124.732643,26.5329637 121.497608,28.1942197 C117.803626,30.1822345 114.384139,32.6436484 111.325502,35.5163006 C107.986842,38.4739884 104.672201,41.8164162 100.853158,44.9063584 C96.9582515,48.2316192 92.4021237,50.6905244 87.4865072,52.1202312 C84.9389231,52.7786447 82.2882318,52.9378656 79.6802871,52.5891329 C77.1795535,52.211386 74.7502066,51.4574386 72.4745455,50.3528324 C68.3079996,48.1762971 64.2664583,45.7679031 60.3688995,43.1389595 C56.8766038,40.8194564 53.0258156,39.0929741 48.9718182,38.0291329 C45.4372407,37.170677 41.7871883,36.8905239 38.1632057,37.1995376 C32.8743727,37.6402786 27.7560982,39.2852385 23.1992823,42.0087861 C19.9927273,43.980578 18.4795215,45.4473988 18.3954545,45.3512139 C18.7182727,44.9584905 19.0804528,44.5999305 19.4763158,44.2811561 C20.563864,43.3029923 21.7285784,42.414398 22.9590909,41.6240462 C30.7330359,36.5992332 40.2089181,34.9422274 49.2240191,37.0312139 C53.3909553,38.0726521 57.3533097,39.8081383 60.9453589,42.1650867 C64.8194579,44.7421395 68.8283651,47.1100638 72.9549282,49.2587283 C77.3584869,51.5045753 82.4198157,52.097436 87.2222967,50.9299422 C91.9772741,49.5279731 96.3842419,47.139708 100.156603,43.9204624 C103.927608,40.902659 107.254258,37.5722543 110.640957,34.6145665 C113.787428,31.708414 117.29998,29.2266432 121.089282,27.2323699 C124.428034,25.6122534 128.003928,24.5366511 131.681722,24.0462428 C137.045712,23.2953417 142.51108,23.8268387 147.630431,25.5972254 C149.014353,26.0689192 150.359487,26.6477786 151.653636,27.3285549 C152.115736,27.5431658 152.554419,27.8050608 152.962679,28.1100578 L152.962679,28.1100578 Z" id="Path" fill="#455A64"></path>
                        <rect id="Rectangle" fill="#455A64" x="44.264067" y="54.2242775" width="14.4715311" height="39.1713295"></rect>
                        <rect id="Rectangle" fill="#455A64" x="105.656986" y="54.2242775" width="14.4715311" height="39.1713295"></rect>
                        <rect id="Rectangle" fill="#455A64" x="126.109282" y="31.2240462" width="14.4715311" height="62.1715607"></rect>
                        <rect id="Rectangle" fill="#455A64" x="25.5411483" y="81.0598844" width="14.4715311" height="13.177341"></rect>
                        <rect id="Rectangle" fill="#455A64" x="64.7283732" y="71.910289" width="14.4715311" height="21.4853179"></rect>
                        <rect id="Rectangle" fill="#455A64" x="85.1926794" y="66.9808092" width="14.4715311" height="26.4147977"></rect>
                        <path d="M59.3120574,98.0124855 C59.3120574,98.3371098 55.8172727,98.5895954 51.4938278,98.5895954 C47.1703828,98.5895954 43.6755981,98.3371098 43.6755981,98.0124855 C43.6755981,97.6878613 47.1823923,97.4353757 51.4938278,97.4353757 C55.8052632,97.4353757 59.3120574,97.6878613 59.3120574,98.0124855 Z" id="Path" fill="#263238"></path>
                        <path d="M41.3097129,98.0124855 C41.3097129,98.3371098 37.8029187,98.5895954 33.4914833,98.5895954 C29.1800478,98.5895954 25.6732536,98.3371098 25.6732536,98.0124855 C25.6732536,97.6878613 29.1800478,97.4353757 33.4914833,97.4353757 C37.8029187,97.4353757 41.3097129,97.6878613 41.3097129,98.0124855 Z" id="Path" fill="#263238"></path>
                        <path d="M143.439091,98.0124855 C143.439091,98.3371098 139.475933,98.5895954 134.600048,98.5895954 C129.724163,98.5895954 125.761005,98.3371098 125.761005,98.0124855 C125.761005,97.6878613 129.712153,97.4353757 134.600048,97.4353757 C139.487943,97.4353757 143.439091,97.6878613 143.439091,98.0124855 Z" id="Path" fill="#263238"></path>
                        <ellipse id="Oval" fill="#263238" cx="113.102919" cy="98.0124855" rx="8.83904306" ry="1"></ellipse>
                        <path d="M99.652201,98.0124855 C99.652201,98.3371098 96.1574163,98.5895954 91.8339713,98.5895954 C87.5105263,98.5895954 84.0277512,98.3371098 84.0277512,98.0124855 C84.0277512,97.6878613 87.5225359,97.4353757 91.8339713,97.4353757 C96.1454067,97.4353757 99.652201,97.6878613 99.652201,98.0124855 Z" id="Path" fill="#263238"></path>
                        <path d="M78.5153589,98.0124855 C78.5153589,98.3371098 75.0085646,98.5895954 70.6971292,98.5895954 C66.3856938,98.5895954 62.8788995,98.3371098 62.8788995,98.0124855 C62.8788995,97.6878613 66.3736842,97.4353757 70.6971292,97.4353757 C75.0205742,97.4353757 78.5153589,97.6878613 78.5153589,98.0124855 Z" id="Path" fill="#263238"></path>
                        <path d="M125.676938,146.838382 L125.917129,146.838382 C126.164339,146.859776 126.405014,146.929202 126.625694,147.042775 C126.994651,147.231669 127.29656,147.52972 127.490383,147.896416 C127.722776,148.416471 127.809936,148.989887 127.742584,149.555607 C127.742584,152.104509 127.742584,155.843699 127.802632,160.640925 C127.862679,165.43815 127.802632,171.353526 127.862679,178.194682 C127.862679,181.625279 127.862679,185.280308 127.862679,189.159769 L127.862679,193.572254 C127.931607,194.11835 127.830975,194.672451 127.57445,195.159306 C127.289719,195.661883 126.819886,196.032995 126.265407,196.193295 C125.730717,196.289767 125.186443,196.322057 124.644115,196.28948 L121.497608,196.28948 L121.71378,196.073064 C121.71378,199.535723 121.71378,203.286936 121.71378,207.158382 L121.71378,207.795607 L121.293445,207.314682 L111.481627,196.241387 L111.67378,196.325549 L10.5291866,196.325549 L3.45555024,196.325549 C3.05923445,196.325549 2.71095694,196.325549 2.2545933,196.325549 C1.81545564,196.271184 1.3998527,196.096434 1.05363636,195.820578 C0.706462232,195.531803 0.444816942,195.153444 0.297033493,194.726474 C0.230901099,194.507935 0.194543997,194.281458 0.188947368,194.053179 L0.188947368,168.443931 C0.188947368,162.492486 0.188947368,156.637225 0.188947368,150.91422 L0.188947368,148.750058 C0.217521956,147.930931 0.673450886,147.186928 1.38990431,146.790289 C1.76335307,146.608421 2.17588351,146.521692 2.59086124,146.537803 L14.0479904,146.537803 L72.1382775,146.609942 L111.289474,146.706127 L121.941962,146.766243 L124.704163,146.766243 L125.652919,146.766243 L124.704163,146.766243 L121.941962,146.766243 L111.289474,146.766243 L72.1382775,146.862428 L14.0479904,146.934566 L2.60287081,146.934566 C2.29576661,146.912682 1.98851356,146.975033 1.71416268,147.114913 C1.16481645,147.397579 0.807758199,147.952103 0.777416268,148.569711 L0.777416268,168.443931 C0.777416268,174.399383 0.777416268,180.455029 0.777416268,186.610867 L0.777416268,193.572254 C0.747034263,193.931143 0.77543069,194.292591 0.861483254,194.642312 C0.9588898,194.954693 1.14703261,195.230947 1.40191388,195.435838 C1.65954345,195.645152 1.97256833,195.774682 2.30263158,195.808555 L10.517177,195.808555 L111.66177,195.808555 L111.781866,195.808555 L111.853923,195.892717 L121.641722,207.002081 L121.221388,207.158382 C121.221388,203.274913 121.221388,199.535723 121.221388,196.073064 L121.221388,195.844624 L124.632105,195.844624 C125.133173,195.880983 125.636735,195.860818 126.133301,195.784509 C126.578082,195.652469 126.95596,195.355844 127.190144,194.954913 C127.430641,194.535907 127.539453,194.054082 127.502392,193.572254 C127.502392,193.067283 127.502392,192.562312 127.502392,192.069364 L127.502392,189.111676 C127.502392,185.228208 127.502392,181.573179 127.502392,178.14659 C127.502392,171.305434 127.502392,165.414104 127.502392,160.592832 C127.502392,155.771561 127.502392,152.056416 127.502392,149.507514 C127.580232,148.961872 127.509703,148.405313 127.29823,147.896416 C127.118403,147.542849 126.838547,147.250132 126.493589,147.054798 C126.235385,146.937421 125.959333,146.864266 125.676938,146.838382 L125.676938,146.838382 Z" id="Path" fill="#263238"></path>
                        <path d="M6.91430622,187.404393 C7.92311005,183.881618 9.10004785,180.286705 11.4419139,177.473295 C13.7837799,174.659884 17.5908134,172.772254 21.1336364,173.686012 C26.7421053,175.128786 29.4442584,182.607168 35.172823,183.304509 C38.3433493,183.737341 41.4298086,181.837688 43.4714354,179.372948 C45.5130622,176.908208 46.774067,173.914451 48.335311,171.125087 C50.7372249,166.929017 53.8957416,163.045549 58.207177,160.941503 C62.5186124,158.837457 68.0670335,158.825434 71.8380383,161.795145 C78.2991866,166.892948 77.3984689,178.14659 84.2799522,182.643237 C87.7023734,184.797999 92.0858909,184.669764 95.3767943,182.318613 C98.4392344,180.046243 100.000478,176.126705 103.219043,174.094798 C106.94201,171.690173 112.106124,172.664046 115.480813,175.501503 C118.855502,178.33896 120.6089,182.715376 121.245407,187.067746" id="Path" fill="#FF725E"></path>
                        <path d="M118.92756,167.181503 C118.830209,167.160753 118.736904,167.124201 118.65134,167.073295 L117.858708,166.700578 C116.822666,166.259682 115.754765,165.897955 114.664163,165.618497 C110.611638,164.747602 106.408794,164.871354 102.414402,165.979191 C99.6590897,166.726639 96.9778034,167.724704 94.4040191,168.960925 C91.6057895,170.259422 88.7114833,171.846474 85.6250239,173.445549 C82.4074394,175.187804 79.0585476,176.6752 75.6090431,177.894104 C71.8791139,179.215827 67.920525,179.767956 63.9717703,179.517225 C60.0436812,179.145369 56.1958615,178.172191 52.5626794,176.631676 C49.0198565,175.212948 45.7652632,173.541734 42.6667943,171.978728 C36.4938756,168.804624 30.6572249,166.267746 25.5171292,165.498266 C21.4403486,164.753878 17.2414211,165.06005 13.3154067,166.387977 C11.8927011,166.923573 10.5252188,167.596006 9.23215311,168.395838 C9.30364948,168.321673 9.38437524,168.257019 9.4723445,168.203468 L10.1929187,167.686474 C11.1465328,167.074561 12.1607153,166.562868 13.2193301,166.159538 C17.1766616,164.721477 21.439924,164.340251 25.5891866,165.05341 C30.8613876,165.786821 36.7220574,168.311676 42.9189952,171.461734 C46.0294737,173.012717 49.284067,174.671908 52.7908612,176.06659 C56.3681224,177.575857 60.1548594,178.528678 64.0198086,178.892023 C67.8869326,179.139609 71.764053,178.599717 75.41689,177.304971 C78.8364188,176.112385 82.1572412,174.653112 85.3488038,172.940578 C88.4472727,171.341503 91.3535885,169.778497 94.1878469,168.492023 C96.7968296,167.260038 99.5147136,166.273894 102.306316,165.546358 C106.367401,164.455266 110.637008,164.401526 114.724211,165.390058 C116.215088,165.749039 117.635703,166.354497 118.92756,167.181503 L118.92756,167.181503 Z" id="Path" fill="#263238"></path>
                        <path d="M65.3408612,159.510751 C65.3654023,160.026118 65.0742142,160.504568 64.605484,160.719048 C64.1367537,160.933528 63.5848273,160.840867 63.2116285,160.485038 C62.8384296,160.12921 62.7190758,159.581835 62.9102079,159.102677 C63.1013401,158.62352 63.564487,158.309025 64.0798565,158.308439 C64.7510781,158.313703 65.302887,158.839828 65.3408612,159.510751 Z" id="Path" fill="#455A64"></path>
                        <path d="M20.0888038,164.86104 C20.0888038,165.55826 19.5242328,166.123468 18.827799,166.123468 C18.1313653,166.123468 17.5667943,165.55826 17.5667943,164.86104 C17.5667943,164.163821 18.1313653,163.598613 18.827799,163.598613 C19.1672862,163.581148 19.4982637,163.708536 19.7386341,163.949178 C19.9790045,164.189819 20.1062485,164.52117 20.0888038,164.86104 Z" id="Path" fill="#455A64"></path>
                        <path d="M110.136555,164.873064 C110.136555,165.576923 109.566607,166.147514 108.863541,166.147514 C108.160474,166.147514 107.590526,165.576923 107.590526,164.873064 C107.590526,164.169204 108.160474,163.598613 108.863541,163.598613 C109.566607,163.598613 110.136555,164.169204 110.136555,164.873064 Z" id="Path" fill="#455A64"></path>
                    </g>
                    <g id="freepik--character-2--inject-37" transform="translate(181.000000, 192.000000)">
                        <path d="M173.830413,188.330408 L185.097645,188.330408 C190.352479,188.330408 201.619711,174.49551 140.485661,176.072857 C100.298802,177.108367 97.6533471,183.056531 99.6855372,186.524286 C100.687015,188.130117 102.503723,189.037355 104.387231,188.872245 C105.373264,188.8 106.671942,188.787959 108.211116,188.8 L107.249132,193.038367 L107.249132,193.038367 L84.8830165,292.037959 L88.7790496,291.700816 L105.301116,237.204082 L136.818099,236 L138.621818,293.940408 L143.564008,293.940408 L144.766488,235.69898 L144.92281,235.69898 L148.253678,235.578571 L176.187273,234.494898 L192.745413,293.952449 L197.483182,293.952449 L173.830413,188.330408 Z M107.69405,229.437755 L118.720785,193.038367 L119.923264,188.920408 L119.923264,188.920408 C124.540785,188.920408 129.939917,188.812041 135.351074,188.812041 L136.553554,228.546735 L107.69405,229.437755 Z M149.251736,228.137347 L149.251736,228.137347 L148.049256,228.137347 L144.982934,228.233673 L145.80062,188.294286 L163.404917,188.294286 L174.227231,227.318571 L149.251736,228.137347 Z" id="Shape" fill="#455A64"></path>
                        <path d="M73.1227686,287.113265 L73.1227686,274.313878 L96.03,274.169388 L96.2103719,293.302245 L94.7914463,293.410612 C88.4784298,293.82 62.6491736,294.614694 58.4164463,293.290204 C53.7027273,291.833265 73.1227686,287.113265 73.1227686,287.113265 Z" id="Path" fill="#FF725E"></path>
                        <path d="M57.8753306,292.122245 C57.8753306,292.33898 66.4369835,292.519592 77.0067769,292.519592 C87.5765702,292.519592 96.1382231,292.33898 96.1382231,292.122245 C96.1382231,291.90551 87.5765702,291.736939 77.0067769,291.736939 C66.4369835,291.736939 57.8753306,291.90551 57.8753306,292.122245 Z" id="Path" fill="#263238"></path>
                        <path d="M72.7259504,289.726122 C72.9183471,289.629796 72.7259504,288.95551 72.2569835,288.281224 C71.7880165,287.606939 71.1747521,287.257755 71.0545041,287.414286 C70.9342562,287.570816 71.2108264,288.124694 71.6677686,288.750816 C72.1247107,289.376939 72.5335537,289.83449 72.7259504,289.726122 Z" id="Path" fill="#263238"></path>
                        <path d="M71.2589256,290.56898 C71.4633471,290.496735 71.355124,289.738163 70.9102066,288.943469 C70.4652893,288.148776 69.8640496,287.655102 69.7077273,287.739388 C69.551405,287.823673 69.8279752,288.534082 70.248843,289.268571 C70.6697107,290.003061 71.0545041,290.653265 71.2589256,290.56898 Z" id="Path" fill="#263238"></path>
                        <path d="M89.2359917,292.037959 C89.3321901,292.037959 89.6688843,291.76102 90.1619008,291.195102 C90.7693559,290.465565 91.4414751,289.79255 92.1700413,289.184286 C92.8883904,288.614854 93.741821,288.2415 94.6471488,288.100612 C95.3445868,288.004286 95.8496281,288.100612 95.8496281,288.004286 C95.8496281,287.907959 95.4648347,287.606939 94.6471488,287.546735 C93.5805925,287.539273 92.5441762,287.900801 91.7130992,288.570204 C90.9136419,289.210278 90.2407212,289.994357 89.7290083,290.882041 C89.3321901,291.532245 89.1518182,291.977755 89.2359917,292.037959 Z" id="Path" fill="#263238"></path>
                        <path d="M72.6538017,287.317959 C72.5455785,287.498571 72.9303719,287.944082 73.5917355,288.184898 C74.2530992,288.425714 74.7942149,288.341429 74.8663636,288.184898 C74.9385124,288.028367 74.4334711,287.715306 73.856281,287.498571 C73.2790909,287.281837 72.7620248,287.137347 72.6538017,287.317959 Z" id="Path" fill="#263238"></path>
                        <path d="M73.0145455,286.089796 C73.0145455,286.29449 73.6037603,286.487143 74.3733471,286.487143 C75.1429339,286.487143 75.7682231,286.330612 75.7561983,286.125918 C75.7441736,285.921224 75.1309091,285.728571 74.3853719,285.716531 C73.6398347,285.70449 73.038595,285.873061 73.0145455,286.089796 Z" id="Path" fill="#263238"></path>
                        <path d="M121.450413,287.113265 L121.450413,274.313878 L144.357645,274.169388 L144.538017,293.302245 L143.119091,293.410612 C136.806074,293.82 110.976818,294.614694 106.744091,293.290204 C102.042397,291.833265 121.450413,287.113265 121.450413,287.113265 Z" id="Path" fill="#FF725E"></path>
                        <path d="M106.215,292.122245 C106.215,292.33898 114.788678,292.519592 125.346446,292.519592 C135.904215,292.519592 144.477893,292.33898 144.477893,292.122245 C144.477893,291.90551 135.91624,291.736939 125.346446,291.736939 C114.776653,291.736939 106.215,291.90551 106.215,292.122245 Z" id="Path" fill="#263238"></path>
                        <path d="M121.06562,289.726122 C121.258017,289.629796 121.06562,288.95551 120.596653,288.281224 C120.127686,287.606939 119.514421,287.257755 119.394174,287.414286 C119.273926,287.570816 119.562521,288.124694 120.007438,288.750816 C120.452355,289.376939 120.873223,289.83449 121.06562,289.726122 Z" id="Path" fill="#263238"></path>
                        <path d="M119.598595,290.56898 C119.803017,290.496735 119.694793,289.738163 119.249876,288.943469 C118.804959,288.148776 118.203719,287.655102 118.047397,287.739388 C117.891074,287.823673 118.167645,288.534082 118.588512,289.268571 C119.00938,290.003061 119.406198,290.653265 119.598595,290.56898 Z" id="Path" fill="#263238"></path>
                        <path d="M137.575661,292.037959 C137.67186,292.037959 138.008554,291.76102 138.50157,291.195102 C139.109025,290.465565 139.781145,289.79255 140.509711,289.184286 C141.22806,288.614854 142.08149,288.2415 142.986818,288.100612 C143.684256,288.004286 144.189298,288.100612 144.189298,288.004286 C144.189298,287.907959 143.792479,287.606939 142.986818,287.546735 C141.920262,287.539273 140.883846,287.900801 140.052769,288.570204 C139.253311,289.210278 138.580391,289.994357 138.068678,290.882041 C137.67186,291.532245 137.491488,291.977755 137.575661,292.037959 Z" id="Path" fill="#263238"></path>
                        <path d="M120.993471,287.317959 C120.885248,287.498571 121.282066,287.944082 121.931405,288.184898 C122.580744,288.425714 123.133884,288.341429 123.206033,288.184898 C123.278182,288.028367 122.77314,287.715306 122.19595,287.498571 C121.61876,287.281837 121.113719,287.137347 120.993471,287.317959 Z" id="Path" fill="#263238"></path>
                        <path d="M121.354215,286.089796 C121.354215,286.29449 121.94343,286.487143 122.713017,286.487143 C123.482603,286.487143 124.107893,286.330612 124.095868,286.125918 C124.083843,285.921224 123.470579,285.728571 122.725041,285.716531 C121.979504,285.70449 121.378264,285.873061 121.354215,286.089796 Z" id="Path" fill="#263238"></path>
                        <path d="M187.081736,57.5310204 C186.143802,57.3142857 184.977397,57.4346939 184.412231,56.6520408 C183.847066,55.8693878 184.255909,54.9542857 184.556529,54.1234694 C185.562261,51.4590036 185.592085,48.5237926 184.640702,45.8393878 C183.958923,44.0693294 182.755198,42.5490193 181.189587,41.4806122 C181.418979,41.2597545 181.617211,41.0085956 181.778802,40.7340816 C182.222571,39.9317406 182.446588,39.0261714 182.42814,38.1091837 C182.488589,36.4593966 181.845959,34.8616258 180.660496,33.7142857 C179.592674,32.7448772 177.964557,32.7448772 176.896736,33.7142857 C176.510522,34.0783451 176.291541,34.5859118 176.291541,35.1170408 C176.291541,35.6481698 176.510522,36.1557365 176.896736,36.5197959 C177.411591,36.9411296 178.121916,37.0300386 178.724504,36.7485714 C179.121322,36.5438776 179.181446,36.2910204 179.181446,36.2910204 C179.032329,36.4330934 178.861919,36.5509145 178.676405,36.6402041 C178.120299,36.8356428 177.502395,36.7210637 177.053058,36.3391837 C176.734878,36.0093788 176.569377,35.5610952 176.596805,35.1033557 C176.624232,34.6456162 176.842076,34.2203638 177.197355,33.9310204 C178.151329,33.1363305 179.552508,33.1989199 180.432025,34.0755102 C181.477951,35.1537909 182.027112,36.6201728 181.947149,38.1212245 C181.963585,38.94405 181.755721,39.7557984 181.345909,40.4691837 C181.183882,40.7361736 180.98558,40.9793163 180.756694,41.1916327 C180.11423,40.8039401 179.416932,40.5157183 178.68843,40.3367347 C177.137231,39.9634694 175.45376,40.0597959 174.034835,39.3253061 C172.851155,38.6479552 171.950513,37.5665996 171.497603,36.2789796 C171.497603,36.1465306 171.497603,36.0020408 171.497603,35.857551 C171.667423,33.7643636 171.952443,31.6821519 172.351364,29.6204082 C172.618202,27.6179906 172.565436,25.5858274 172.195041,23.6 C171.633772,20.1666093 169.515538,17.1873474 166.459215,15.5326531 C164.363636,14.4989381 161.916862,14.4547933 159.785455,15.4122449 C159.221839,15.6702289 158.702396,16.0156309 158.246281,16.4357143 L157.99376,16.7006122 C157.28318,17.0537415 156.655969,17.5545368 156.153967,18.1695918 L152.450331,51.6189796 L179.614339,68.2473469 C181.729238,68.1768054 183.819529,67.7703828 185.807107,67.0432653 C187.815931,66.2762893 189.347926,64.6084705 189.943636,62.54 C190.46637,60.374692 189.210806,58.1771686 187.081736,57.5310204 Z M169.248967,22.5042857 C168.290703,19.8370449 166.301771,17.6675652 163.729587,16.4838776 C161.956862,15.7887274 159.981597,15.8233515 158.234256,16.5802041 C158.720559,16.2061574 159.254316,15.8984336 159.821529,15.665102 C161.890562,14.8267703 164.221623,14.9322694 166.206694,15.9540816 C169.088932,17.5884446 171.06501,20.4544702 171.569752,23.732449 C171.906276,25.6494388 171.946831,27.606806 171.69,29.5361224 C171.533678,31.0412245 171.11281,32.5583673 170.920413,34.1718367 C170.771604,33.0294245 170.683298,31.8799248 170.655868,30.7281633 C170.650111,27.9273239 170.174527,25.14735 169.248967,22.5042857 L169.248967,22.5042857 Z" id="Shape" fill="#263238"></path>
                        <path d="M161.20438,22.4561224 C161.041467,21.8150732 160.66895,21.2470754 160.146198,20.8426531 C159.11883,20.3770892 157.951922,20.3253491 156.887479,20.6981633 L156.827355,13.0161224 L141.892562,0.854897959 L133.847975,5.03306122 C129.645668,7.22073913 127.025076,11.5849068 127.065992,16.3273469 C127.126116,22.5163265 127.282438,30.9087755 127.691281,35.6769388 C128.388719,43.8646939 136.661777,44.5389796 136.661777,44.5389796 C136.661777,44.5389796 137.022521,47.4889796 137.263017,50.414898 C137.263017,50.414898 135.447273,74.6530612 143.960826,74.4363265 C150.237769,74.2797959 154.458471,61.0710204 156.23814,54.1234694 L157.188099,50.3065306 L157.188099,50.1018367 L157.188099,49.9453061 L157.188099,49.9453061 L157.007727,26.9593878 L157.260248,27.2242857 C157.814027,27.6945952 158.594383,27.7893099 159.244339,27.465102 C160.156914,27.0591923 160.864748,26.2982357 161.20438,25.3579592 C161.523241,24.4170282 161.523241,23.3970534 161.20438,22.4561224 L161.20438,22.4561224 Z" id="Path" fill="#FFBE9D"></path>
                        <path d="M128.965909,22.3116327 C128.968978,22.5905468 129.084289,22.8564262 129.285736,23.0490753 C129.487182,23.2417243 129.757726,23.3448491 130.036116,23.335102 C130.613892,23.335102 131.082273,22.8660975 131.082273,22.287551 C131.082273,21.7090046 130.613892,21.24 130.036116,21.24 C129.749276,21.229793 129.471102,21.3394157 129.268147,21.5426407 C129.065192,21.7458657 128.955716,22.0244104 128.965909,22.3116327 L128.965909,22.3116327 Z" id="Path" fill="#263238"></path>
                        <path d="M127.919752,21.2038776 C128.052025,21.3363265 128.809587,20.65 129.939917,20.5657143 C131.070248,20.4814286 131.924008,20.9991837 132.044256,20.8426531 C132.164504,20.6861224 131.948058,20.5295918 131.575289,20.2887755 C131.071107,19.9678012 130.47466,19.8237856 129.879793,19.8793878 C129.287047,19.9307543 128.726433,20.1713374 128.280496,20.5657143 C127.955826,20.8667347 127.847603,21.1436735 127.919752,21.2038776 Z" id="Path" fill="#263238"></path>
                        <path d="M141.11095,21.9504082 C141.11095,22.5289546 141.579331,22.9979592 142.157107,22.9979592 C142.734884,22.9979592 143.203264,22.5289546 143.203264,21.9504082 C143.203264,21.3718617 142.734884,20.9028571 142.157107,20.9028571 C141.579331,20.9028571 141.11095,21.3718617 141.11095,21.9504082 Z" id="Path" fill="#263238"></path>
                        <path d="M140.437562,20.8306122 C140.569835,20.9630612 141.327397,20.2887755 142.457727,20.192449 C143.588058,20.0961224 144.441818,20.6259184 144.562066,20.4814286 C144.682314,20.3369388 144.465868,20.1563265 144.093099,19.9155102 C143.05078,19.2838262 141.720872,19.3956096 140.798306,20.192449 C140.473636,20.4693878 140.365413,20.7704082 140.437562,20.8306122 Z" id="Path" fill="#263238"></path>
                        <path d="M136.577603,30.5355102 C135.968976,30.6623127 135.346682,30.7108677 134.725785,30.68 C134.5622,30.7022955 134.396353,30.7022955 134.232769,30.68 C134.014421,30.6341343 133.831163,30.486438 133.739752,30.2826531 C133.625287,29.8848733 133.650758,29.4597926 133.811901,29.0785714 L134.497314,26.6704082 C135.020284,24.6146162 135.699666,22.6019323 136.529504,20.65 C136.164257,22.7375185 135.641689,24.7943496 134.966281,26.8028571 L134.244793,29.2110204 C134.109923,29.4915392 134.063776,29.8065969 134.112521,30.1140816 C134.172645,30.3187755 134.43719,30.354898 134.725785,30.354898 C135.348473,30.327424 135.971914,30.3882297 136.577603,30.5355102 L136.577603,30.5355102 Z" id="Path" fill="#263238"></path>
                        <path d="M140.485661,31.4506122 C140.55781,31.3663265 137.226942,33.4614286 134.930207,33.5216327 C135.805869,34.6832493 137.365496,35.0873968 138.693967,34.4969388 C139.994585,34.1065299 140.775429,32.7788996 140.485661,31.4506122 L140.485661,31.4506122 Z" id="Path" fill="#FAFAFA"></path>
                        <path d="M136.613678,44.5510204 C140.499245,44.2944404 144.229952,42.9280346 147.363843,40.6136735 C147.363843,40.6136735 145.055083,46.6942857 136.842149,46.5497959 L136.613678,44.5510204 Z" id="Path" fill="#EB996E"></path>
                        <path d="M125.875537,17.3146939 C129.482975,17.8083673 132.068306,16.8330612 135.555496,15.9540816 C139.042686,15.075102 142.361529,12.7753061 143.576033,9.37979592 C143.994201,11.624381 145.026601,13.7086075 146.558182,15.4002041 C146.882851,15.7614286 147.50814,16.0985714 147.760661,15.7012245 C147.869786,15.4643765 147.869786,15.1915419 147.760661,14.9546939 L147.039174,12.0889796 C148.274035,14.3483212 149.87971,16.3835287 151.788967,18.1093878 C153.785083,19.7108163 159.857603,22.1912245 158.931694,19.8071429 C158.703223,19.205102 160.735413,0.638163265 143.107066,0.36122449 C125.478719,0.0842857143 125.875537,17.3146939 125.875537,17.3146939 Z" id="Path" fill="#263238"></path>
                        <path d="M157.11595,22.6006122 C157.055826,22.6006122 157.41657,22.1791837 158.174132,22.2032653 C158.963407,22.2657872 159.641176,22.7895046 159.901684,23.5381564 C160.162191,24.2868082 159.956189,25.1188702 159.376612,25.6589796 C159.041514,25.9524544 158.618526,26.1261106 158.174132,26.1526531 C157.41657,26.1526531 157.067851,25.7914286 157.11595,25.7432653 C157.16405,25.695102 157.548843,25.827551 158.126033,25.7432653 C158.866119,25.6112294 159.405141,24.9668246 159.405141,24.2140816 C159.405141,23.4613386 158.866119,22.8169338 158.126033,22.684898 C157.524793,22.5163265 157.152025,22.6969388 157.11595,22.6006122 Z" id="Path" fill="#EB996E"></path>
                        <path d="M186.384298,80.2761224 L189.414545,79.6620408 C189.414545,79.6620408 182.812934,49.9453061 159.869628,49.9453061 L157.16405,49.9453061 L157.16405,50.0897959 L157.16405,50.2944898 L156.214091,54.1114286 C154.434421,61.0589796 150.201694,74.2677551 143.936777,74.4242857 C135.988388,74.6289796 137.04657,53.5695918 137.214917,50.7279592 C137.015831,50.7511759 136.821304,50.8039306 136.637727,50.8844898 C136.637727,50.8844898 111.686281,52.2691837 100.563347,74.1834694 L119.803017,88.2591837 L124.504711,85.417551 C124.504711,85.417551 126.043884,116.410612 123.39843,124.851224 C120.416281,134.387551 115.79876,144.947347 115.79876,144.947347 C136.950372,143.297755 161.011983,144.24898 186.660868,146.62102 L169.549587,83.7077551 C175.299568,83.4023182 180.972677,82.2458963 186.384298,80.2761224 L186.384298,80.2761224 Z" id="Path" fill="#FF725E"></path>
                        <path d="M165.797851,95.122449 C165.797851,95.122449 165.641529,95.3993878 165.256736,95.7967347 C164.70298,96.3434405 164.09453,96.8316563 163.440992,97.2536735 C158.958916,100.177385 153.125498,99.9653287 148.866942,96.7238776 C148.240151,96.2597497 147.667389,95.7266137 147.159421,95.1344898 C146.798678,94.7130612 146.642355,94.4481633 146.67843,94.4240816 C146.714504,94.4 147.53219,95.2910204 149.083388,96.3626531 C153.283084,99.25794 158.776157,99.4597462 163.176446,96.8804082 C164.871942,95.9412245 165.713678,95.122449 165.797851,95.122449 Z" id="Path" fill="#263238"></path>
                        <path d="M176.90876,111.678571 C176.68766,111.199174 176.514462,110.699052 176.391694,110.18551 C176.055,109.101837 175.646157,107.777347 175.189215,106.091633 C174.155083,102.635918 172.784256,97.8557143 171.076736,92.6179592 C169.369215,87.3802041 167.830041,82.6361224 166.675661,79.2165306 C166.14657,77.6030612 165.689628,76.242449 165.328884,75.1587755 C165.129967,74.6753955 164.988701,74.1702026 164.908017,73.6536735 C165.168609,74.1099729 165.386003,74.5896817 165.557355,75.0865306 C165.942149,76.0136735 166.47124,77.3742857 167.096529,79.0720408 C168.359132,82.4555102 170.006529,87.1634694 171.66595,92.4253061 C173.325372,97.6871429 174.696198,102.479388 175.610083,105.971224 C176.067025,107.717143 176.427769,109.137959 176.644215,110.125306 C176.79176,110.631151 176.880529,111.152352 176.90876,111.678571 Z" id="Path" fill="#263238"></path>
                        <path d="M169.465413,64.1534694 C168.387266,64.1301057 167.3309,63.8450026 166.387066,63.3226531 C165.361832,62.9920054 164.427373,62.4272853 163.657438,61.6730612 C164.697875,61.8769195 165.700042,62.242568 166.627562,62.7567347 C167.638516,63.0761631 168.595319,63.5470826 169.465413,64.1534694 Z" id="Path" fill="#263238"></path>
                        <path d="M175.381612,74.4604082 C175.452019,73.2490576 175.732793,72.0592722 176.211322,70.9444898 C176.498169,69.7619834 176.986298,68.6377913 177.654298,67.6212245 C177.568771,68.8315814 177.284372,70.0195117 176.812562,71.1371429 C176.526736,72.3179703 176.042885,73.4416739 175.381612,74.4604082 Z" id="Path" fill="#263238"></path>
                        <path d="M154.78314,81.877551 C155.047097,80.7734506 155.481184,79.7172543 156.069793,78.7469388 C156.473629,77.6828639 157.032854,76.6846546 157.729215,75.784898 C157.272489,78.0308687 156.259443,80.1259066 154.78314,81.877551 L154.78314,81.877551 Z" id="Path" fill="#263238"></path>
                        <path d="M151.055455,88.4036735 C149.983399,87.843589 149.047422,87.0543481 148.313802,86.0918367 C147.427356,85.2637244 146.737117,84.2475568 146.293636,83.1177551 C148.025824,84.7576633 149.633581,86.5245269 151.103554,88.4036735 L151.055455,88.4036735 Z" id="Path" fill="#263238"></path>
                        <path d="M165.942149,87.4163265 C165.316766,88.7212127 164.442595,89.891054 163.368843,90.86 C162.475478,91.8246661 161.479527,92.6887045 160.398719,93.4367347 L159.508884,93.9785714 L160.206322,93.2681633 C160.374669,93.0995918 160.482893,93.0273469 160.518967,93.0514286 C160.555041,93.0755102 160.518967,93.2079592 160.422769,93.4126531 L160.230372,93.2440816 C160.65124,92.7383673 161.721446,91.6908163 162.923926,90.4265306 C163.835911,89.3327812 164.846223,88.3251537 165.942149,87.4163265 L165.942149,87.4163265 Z" id="Path" fill="#263238"></path>
                        <path d="M169.176818,108.909184 C167.985117,108.707735 166.854519,108.238426 165.87,107.536531 C164.775552,107.011763 163.816764,106.241238 163.068223,105.284898 C164.168592,105.732968 165.213645,106.306695 166.182645,106.994694 C167.256797,107.504847 168.262723,108.148041 169.176818,108.909184 Z" id="Path" fill="#263238"></path>
                        <path d="M154.109752,103.996531 C153.702084,105.148915 153.095659,106.220742 152.318058,107.163265 C151.708919,108.22352 150.928799,109.175558 150.009298,109.980816 C150.410868,108.825657 151.017879,107.752794 151.800992,106.814082 C152.410676,105.754205 153.190727,104.802251 154.109752,103.996531 Z" id="Path" fill="#263238"></path>
                        <path d="M144.225372,104.971837 C143.287589,104.626015 142.43178,104.088884 141.71219,103.39449 C140.425537,102.395102 139.475579,101.467959 139.583802,101.33551 C139.692025,101.203061 140.786281,101.901429 142.096983,102.900816 C143.407686,103.900204 144.297521,104.827347 144.225372,104.971837 Z" id="Path" fill="#263238"></path>
                        <path d="M138.874339,90.3061224 C138.970537,90.4506122 138.032603,91.2934694 136.77,92.1965306 C135.507397,93.0995918 134.365041,93.7136735 134.365041,93.5691837 C134.365041,93.4246939 135.194752,92.5818367 136.457355,91.6787755 C137.161563,91.0616155 137.983944,90.5945688 138.874339,90.3061224 Z" id="Path" fill="#263238"></path>
                        <path d="M136.830124,82.8769388 C136.697851,82.9853061 135.832066,82.0702041 134.894132,80.8420408 C133.956198,79.6138776 133.318884,78.5181633 133.451157,78.4338776 C133.58343,78.3495918 134.46124,79.2526531 135.387149,80.4808163 C136.313058,81.7089796 136.974421,82.7806122 136.830124,82.8769388 Z" id="Path" fill="#263238"></path>
                        <path d="M158.270331,63.13 C158.470617,62.0836573 158.879598,61.088511 159.47281,60.2040816 C159.886236,59.2218507 160.481972,58.3270564 161.22843,57.5671429 C161.0247,58.6161902 160.616054,59.6146153 160.02595,60.505102 C159.615655,61.4854564 159.01945,62.3768671 158.270331,63.13 Z" id="Path" fill="#263238"></path>
                        <path d="M131.479091,64.3822449 C130.371862,64.0559377 129.330082,63.5384289 128.400744,62.8530612 C127.368365,62.3353737 126.435998,61.6382242 125.647066,60.7940816 C126.7601,61.1053994 127.804482,61.6242012 128.725413,62.3232653 C129.760263,62.8369343 130.693306,63.5345889 131.479091,64.3822449 Z" id="Path" fill="#263238"></path>
                        <path d="M117.446157,60.7820408 C117.602479,60.8663265 117.157562,61.9018367 116.460124,63.0697959 C115.762686,64.2377551 115.077273,65.1408163 114.92095,65.0444898 C114.764628,64.9481633 115.22157,63.9367347 115.919008,62.7567347 C116.616446,61.5767347 117.30186,60.6977551 117.446157,60.7820408 Z" id="Path" fill="#263238"></path>
                        <path d="M132.044256,142.081633 C130.000827,141.243136 128.13881,140.016492 126.56095,138.469388 C127.620348,138.803927 128.607493,139.334918 129.47095,140.034694 C130.441789,140.560879 131.31279,141.253718 132.044256,142.081633 Z" id="Path" fill="#263238"></path>
                        <path d="M172.231116,137.77102 C172.363388,137.891429 171.485579,139.047347 170.271074,140.371837 C169.05657,141.696327 167.986364,142.659592 167.866116,142.539184 C167.745868,142.418776 168.611653,141.262857 169.826157,139.938367 C171.040661,138.613878 172.110868,137.650612 172.231116,137.77102 Z" id="Path" fill="#263238"></path>
                        <path d="M144.92281,142.286327 C144.874939,140.681242 144.874939,139.075084 144.92281,137.47 C145.079132,137.47 145.512025,138.493469 145.512025,139.878163 C145.605508,140.725353 145.396801,141.578354 144.92281,142.286327 Z" id="Path" fill="#263238"></path>
                        <path d="M159.136116,142.515102 C158.0782,142.228777 157.083082,141.74689 156.202066,141.094286 C155.216738,140.615447 154.331242,139.953505 153.592686,139.143673 C155.638373,139.90307 157.520025,141.047462 159.136116,142.515102 L159.136116,142.515102 Z" id="Path" fill="#263238"></path>
                        <path d="M186.684917,146.633061 C186.445147,146.659507 186.203201,146.659507 185.96343,146.633061 L183.895165,146.46449 L176.319545,145.790204 C169.922355,145.236327 161.084132,144.441633 151.29595,144.285102 C141.507769,144.128571 132.621446,144.345306 126.212231,144.586122 L118.612562,144.911224 L116.544298,144.99551 C116.304984,145.029278 116.062124,145.029278 115.82281,144.99551 L116.532273,144.887143 L118.600537,144.69449 C120.380207,144.537959 122.977562,144.357347 126.188182,144.164694 C132.609421,143.803469 141.483719,143.490408 151.307975,143.683061 C161.132231,143.875714 169.970455,144.706531 176.367645,145.368776 C179.554215,145.717959 182.139545,146.01898 183.919215,146.247755 L185.975455,146.524694 C186.215513,146.531242 186.453827,146.567644 186.684917,146.633061 Z" id="Path" fill="#263238"></path>
                        <g id="Group" opacity="0.2" transform="translate(164.739669, 73.448980)" fill="#000000">
                            <path d="M0.144297521,0.204693878 L6.15669421,40.2404082 C6.15669421,40.2404082 11.7241736,40.2404082 12.746281,38.5787755 L0.144297521,0.204693878 Z" id="Path"></path>
                            <path d="M0.144297521,0.204693878 L6.15669421,40.2404082 C6.15669421,40.2404082 11.7241736,40.2404082 12.746281,38.5787755 L0.144297521,0.204693878 Z" id="Path"></path>
                        </g>
                        <path d="M129.975992,144.200816 C115.82281,145.296531 108.090868,144.321224 92.5187603,145.790204 C81.646214,147.225634 73.4451687,156.388683 73.2069421,167.367347 L70.477314,285.138571 L99.0842975,285.138571 L103.60562,179.552653 L112.022975,180.624286 C110.940744,220.166327 115.065248,285.138571 115.065248,285.138571 L146.834752,283.585306 L145.019008,182.177551 C145.019008,182.177551 187.743099,185.079388 186.672893,146.669184 C186.684917,146.633061 153.039545,142.551224 129.975992,144.200816 Z" id="Path" fill="#263238"></path>
                        <path d="M138.52562,143.899796 C137.811454,144.060681 137.088829,144.181279 136.361157,144.26102 C134.966281,144.477755 132.946116,144.778776 130.469008,145.236327 C127.563178,145.643472 124.716871,146.399456 121.991529,147.487959 C120.419799,148.184983 118.963954,149.11894 117.674628,150.257347 C116.30243,151.484386 115.190207,152.974785 114.403884,154.640204 C112.966613,157.932159 112.268775,161.499983 112.359669,165.091633 C112.359669,168.414898 112.479917,171.437143 112.455868,173.965714 C112.431818,176.494286 112.347645,178.541224 112.251446,179.986122 C112.251446,180.696531 112.155248,181.250408 112.107149,181.611633 C112.099392,181.802744 112.071172,181.99247 112.022975,182.177551 C111.970965,181.448003 111.970965,180.71567 112.022975,179.986122 C112.022975,178.565306 112.022975,176.530408 112.022975,173.965714 C112.022975,171.40102 111.878678,168.402857 111.794504,165.091633 C111.667829,161.406358 112.370586,157.739747 113.850744,154.363265 C114.675788,152.627294 115.84128,151.07533 117.27781,149.799796 C118.616426,148.625069 120.129658,147.66636 121.763058,146.958163 C124.542891,145.875717 127.447615,145.147557 130.408884,144.790816 C132.898017,144.393469 134.942231,144.152653 136.349132,144.020204 C137.04657,143.96 137.551612,143.911837 137.972479,143.899796 C138.155651,143.869906 138.342448,143.869906 138.52562,143.899796 L138.52562,143.899796 Z" id="Path" fill="#455A64"></path>
                        <path d="M101.080413,172.183673 C101.698568,173.341661 102.217495,174.550077 102.631612,175.795918 C103.244747,176.972119 103.578092,178.274307 103.60562,179.600816 C102.987465,178.442828 102.468538,177.234413 102.054421,175.988571 C101.435029,174.814781 101.101298,173.511083 101.080413,172.183673 L101.080413,172.183673 Z" id="Path" fill="#455A64"></path>
                        <path d="M103.413223,169.77551 C103.953613,171.324031 104.233982,172.951521 104.242934,174.591837 C104.429502,176.247996 104.215026,177.92479 103.617645,179.480408 C103.425248,179.480408 103.749917,177.28898 103.617645,174.664082 C103.485372,172.039184 103.196777,169.77551 103.413223,169.77551 Z" id="Path" fill="#455A64"></path>
                        <path d="M142.86657,172.003061 C143.596358,173.585478 144.078973,175.270791 144.297521,177 C144.698171,178.685425 144.959591,180.401013 145.079132,182.129388 C144.353201,180.543863 143.882419,178.853295 143.684256,177.120408 C143.268159,175.440748 142.994623,173.72887 142.86657,172.003061 Z" id="Path" fill="#455A64"></path>
                        <path d="M145.728471,171.97898 C146.444864,175.355836 146.253995,178.862538 145.175331,182.141429 C145.187535,180.442903 145.295932,178.746438 145.5,177.060204 C145.487678,175.363633 145.563939,173.667577 145.728471,171.97898 Z" id="Path" fill="#455A64"></path>
                        <path d="M98.3507851,278.227143 C98.3507851,278.395714 92.0858678,278.540204 84.3539256,278.540204 C76.6219835,278.540204 70.3570661,278.395714 70.3570661,278.227143 C70.3570661,278.058571 76.6219835,277.914082 84.3539256,277.914082 C92.0858678,277.914082 98.3507851,278.046531 98.3507851,278.227143 Z" id="Path" fill="#455A64"></path>
                        <path d="M146.449959,277.697347 C146.449959,277.865918 139.319256,278.010408 130.529132,278.010408 C121.739008,278.010408 114.608306,277.865918 114.608306,277.697347 C114.608306,277.528776 121.739008,277.384286 130.529132,277.384286 C139.319256,277.384286 146.449959,277.528776 146.449959,277.697347 Z" id="Path" fill="#455A64"></path>
                        <path d="M182.885083,164.260816 L182.488264,164.260816 L181.285785,164.260816 L176.716364,164.260816 L159.881653,164.345102 L148.277727,164.345102 C146.14449,164.338121 144.017735,164.580579 141.940661,165.067551 C139.752291,165.566471 137.792894,166.782662 136.373182,168.523265 C135.027711,170.46832 134.310057,172.77964 134.316942,175.145714 C134.196694,177.553878 134.46124,180.070408 134.557438,182.635102 C134.685702,187.756463 134.825992,193.034354 134.978306,198.468776 C135.59157,220.142245 136.096612,239.780816 136.276983,254.00102 C136.373182,261.105102 136.397231,266.860612 136.397231,270.858163 C136.397231,272.816803 136.397231,274.345986 136.397231,275.445714 C136.397231,275.939388 136.397231,276.324694 136.397231,276.649796 C136.416158,276.785601 136.416158,276.923379 136.397231,277.059184 C136.381086,276.9232 136.381086,276.78578 136.397231,276.649796 C136.397231,276.348776 136.397231,275.963469 136.397231,275.445714 C136.397231,274.35 136.397231,272.820816 136.313058,270.858163 C136.228884,266.848571 136.120661,261.105102 135.988388,254.00102 C135.687769,239.792857 135.122603,220.154286 134.509339,198.468776 C134.365041,193.050408 134.232769,187.76449 134.100496,182.647143 C134.004298,180.106531 133.751777,177.59 133.88405,175.097551 C133.882113,172.615086 134.646501,170.192697 136.072562,168.162041 C137.57213,166.331205 139.643294,165.058859 141.952686,164.549796 C144.078057,164.059325 146.252991,163.816894 148.43405,163.827023 L160.037975,163.827023 L176.872686,163.947755 L181.442107,164.02 L182.644587,164.02 C182.732721,164.091875 182.813303,164.172565 182.885083,164.260816 L182.885083,164.260816 Z" id="Path" fill="#455A64"></path>
                        <path d="M108.644008,180.154694 C108.644008,180.154694 107.537727,165.886327 112.88876,157.686531 L112.035,180.564082 L108.644008,180.154694 Z" id="Path" fill="#000000" opacity="0.2"></path>
                        <path d="M110.952769,166.584694 C110.849156,166.600559 110.743737,166.600559 110.640124,166.584694 L109.70219,166.416122 C108.872479,166.259592 107.67,166.018776 106.094752,165.838163 C104.198098,165.60463 102.274828,165.718874 100.41905,166.175306 C99.270573,166.478768 98.1867549,166.988759 97.2204545,167.680408 C96.1620875,168.46849 95.3151695,169.50683 94.7553719,170.702653 C93.5528926,173.231224 93.408595,176.397959 93.3364463,179.721224 C93.2642975,183.04449 93.1680992,186.632653 93.0719008,190.389388 C92.8674793,197.902857 92.6510331,206.162857 92.422562,214.832245 C91.9175207,232.146939 91.4485537,247.824082 91.1118595,259.238776 C90.9194628,264.873878 90.7511157,269.461429 90.6428926,272.688367 C90.5707438,274.241633 90.5226446,275.469796 90.4865702,276.300612 C90.4865702,276.685918 90.4865702,276.99898 90.4264463,277.251837 C90.4420699,277.359639 90.4420699,277.469136 90.4264463,277.576939 C90.4080517,277.469354 90.4080517,277.359421 90.4264463,277.251837 C90.4264463,276.99898 90.4264463,276.685918 90.4264463,276.300612 C90.4264463,275.409592 90.4264463,274.181429 90.4264463,272.688367 C90.4865702,269.449388 90.5827686,264.873878 90.6909917,259.226735 C90.9795868,247.812041 91.3884298,232.134898 91.8213223,214.808163 C92.073843,206.138776 92.302314,197.890816 92.5187603,190.377347 C92.6269835,186.620612 92.7352066,183.04449 92.8434298,179.709184 C92.9516529,176.373878 93.0719008,173.146939 94.3826033,170.51 C94.9868803,169.256879 95.8916085,168.173068 97.0160331,167.355306 C98.0229051,166.647393 99.1523583,166.13295 100.346901,165.838163 C102.250244,165.390687 104.221104,165.308969 106.154876,165.597347 C107.730124,165.814082 108.932603,166.103061 109.762314,166.283673 L110.688223,166.52449 C110.85657,166.536531 110.964793,166.572653 110.952769,166.584694 Z" id="Path" fill="#455A64"></path>
                        <path d="M108.740207,75.7608163 C108.740207,75.7608163 78.5459504,106.091633 72.7860744,112.870612 C67.8679339,118.662245 71.0785537,129.583265 75.1910331,130.052857 C79.3035124,130.522449 145.872769,129.619388 145.872769,129.619388 L144.994959,115.989184 C144.994959,115.989184 101.87405,116.181837 100.611446,115.387143 C99.348843,114.592449 125.550868,88.0665306 125.550868,88.0665306 L108.740207,75.7608163 Z" id="Path" fill="#FFBE9D"></path>
                        <path d="M188.584835,79.7222449 C188.584835,79.7222449 197.759752,107.572653 198.866033,110.859796 C199.972314,114.146939 205.672066,128.078163 194.849752,129.246122 C184.027438,130.414082 125.947686,129.246122 125.947686,129.246122 L121.630785,115.170408 C121.630785,115.170408 177.762521,115.025918 177.48595,112.027755 C177.20938,109.029592 168.960372,83.8763265 168.960372,83.8763265 L188.584835,79.7222449 Z" id="Path" fill="#FFBE9D"></path>
                        <polygon id="Path" fill="#263238" points="66.0161157 71.0408163 86.8791322 128.90898 182.921157 128.872857 182.259793 126.043265 146.221488 124.718776 128.484917 70.1497959"></polygon>
                        <path d="M108.82438,97.3861224 C108.860967,99.1997237 107.47223,100.724113 105.665307,100.853776 C103.858383,100.98344 102.266757,99.6729187 102.044703,97.8726264 C101.822649,96.072334 103.048017,94.4134294 104.832149,94.0989796 C106.836791,93.9168454 108.61554,95.3814407 108.82438,97.3861224 L108.82438,97.3861224 Z" id="Path" fill="#FAFAFA"></path>
                        <polygon id="Path" fill="#455A64" points="232.595579 127.644694 5.71177686 127.644694 3.24669421 127.644694 0.793636364 127.644694 0.793636364 293.795918 5.71177686 293.795918 5.71177686 137.433878 232.595579 137.433878 232.595579 293.916327 290.591157 293.916327 290.591157 137.433878 290.591157 127.644694"></polygon>
                    </g>
                    <g id="freepik--character-1--inject-37" transform="translate(28.000000, 84.000000)">
                        <path d="M107.136,395.312925 L107.136,382.88609 L84.936,382.741731 L84.744,401.327851 L86.124,401.42409 C92.256,401.821075 117.324,402.627075 121.404,401.315821 C126,399.896299 107.136,395.312925 107.136,395.312925 Z" id="Path" fill="#FF725E"></path>
                        <path d="M121.932,400.185015 C121.932,400.389522 113.628,400.55794 103.38,400.55794 C93.132,400.55794 84.828,400.389522 84.828,400.185015 C84.828,399.980507 93.132,399.80006 103.38,399.80006 C113.628,399.80006 121.932,399.968478 121.932,400.185015 Z" id="Path" fill="#263238"></path>
                        <path d="M107.532,397.851224 C107.352,397.754985 107.532,397.093343 107.976,396.455761 C108.42,395.818179 109.044,395.457284 109.176,395.601642 C109.308,395.746 109.02,396.299373 108.576,396.900866 C108.132,397.502358 107.712,397.947463 107.532,397.851224 Z" id="Path" fill="#263238"></path>
                        <path d="M108.948,398.669254 C108.756,398.597075 108.852,397.863254 109.296,397.093343 C109.74,396.323433 110.304,395.890358 110.496,395.974567 C110.688,396.058776 110.388,396.732448 109.98,397.454239 C109.572,398.17603 109.2,398.741433 108.948,398.669254 Z" id="Path" fill="#263238"></path>
                        <path d="M91.512,400.100806 C91.428,400.160955 91.092,399.836149 90.612,399.282776 C90.0290426,398.571078 89.3779325,397.918348 88.668,397.33394 C87.9739961,396.776927 87.1465187,396.411931 86.268,396.275313 C85.584,396.179075 85.152,396.275313 85.068,396.179075 C84.984,396.082836 85.44,395.794119 86.268,395.746 C87.3031295,395.723539 88.3120519,396.073486 89.112,396.732448 C89.8831654,397.354258 90.5339455,398.112671 91.032,398.97 C91.428,399.607582 91.596,400.040657 91.512,400.100806 Z" id="Path" fill="#263238"></path>
                        <path d="M107.592,395.517433 C107.712,395.697881 107.328,396.118925 106.692,396.359522 C106.056,396.600119 105.492,396.503881 105.492,396.299373 C105.492,396.094866 105.912,395.854269 106.464,395.649761 C107.016,395.445254 107.484,395.336985 107.592,395.517433 Z" id="Path" fill="#263238"></path>
                        <path d="M107.244,394.314448 C107.244,394.518955 106.68,394.699403 105.924,394.711433 C105.168,394.723463 104.58,394.555045 104.592,394.350537 C104.604,394.14603 105.204,393.965582 105.924,393.953552 C106.644,393.941522 107.232,394.10994 107.244,394.314448 Z" id="Path" fill="#263238"></path>
                        <path d="M171.6,24.6972836 L171.804,20.9319403 C172.169675,18.8476264 172.326455,16.7318699 172.272,14.6162687 C172.269062,13.5652596 172.082231,12.5229149 171.72,11.5366269 C171.322902,10.2866542 170.757699,9.09677633 170.04,7.99985075 C169.672018,7.6283639 169.585947,7.0609485 169.82714,6.59659556 C170.068333,6.13224261 170.581405,5.87758308 171.096,5.96680597 C172.152,6.24349254 174.312,8.75773134 175.296,12.5110448 C176.28,16.2643582 178.8,10.7065672 179.748,8.69758209 C180.696,6.68859701 183.96,0.613522388 184.8,0.421044776 C186,0.132328358 186.588,1.41952239 185.58,3.40444776 C184.572,5.38937313 181.98,11.5486567 183.084,12.005791 C183.86696,11.7973292 184.685528,11.760402 185.484,11.8975224 C185.741648,11.9545668 185.937403,12.1651683 185.976,12.4268358 C186.023116,13.0160528 186.139935,13.5975659 186.324,14.1591343 C186.324,14.1591343 187.812,13.6779403 188.184,14.3155224 C188.459706,14.9778376 188.625885,15.6807747 188.676,16.3966866 C188.676,16.3966866 189.804,15.9034627 190.404,16.2884179 C191.688,17.1305075 190.296,18.8988955 190.296,18.8988955 C187.235999,23.3148367 183.897173,27.529892 180.3,31.518209 L171.576,24.4807463" id="Path" fill="#FFBE9D"></path>
                        <path d="M64.86,24.4446567 L64.716,72.4317313 L85.2,73.3820896 L85.788,61.7131343 C85.788,61.7131343 93.084,63.1687463 94.968,56.3718806 C96.168,52.0411343 95.868,18.5139403 95.868,18.5139403 L64.86,24.4446567 Z" id="Path" fill="#FFBE9D"></path>
                        <path d="M94.8,11.1035522 C88.548,13.1245672 87.048,13.8102687 84.24,14.026806 C81.432,14.2433433 62.424,14.267403 60.684,25.0100597 C60.4497697,24.5050325 60.2687882,23.9768646 60.144,23.4341493 C60.0036681,22.3811533 59.9275267,21.3205577 59.916,20.2582687 C59.3060315,21.2546218 59.1697115,22.4713287 59.544,23.5785075 C59.5920652,23.8125653 59.6603218,24.0419949 59.748,24.264209 C59.616,24.1439104 59.496,24.0115821 59.352,23.8912836 C58.6621031,23.2792445 57.8408858,22.834684 56.952,22.5920597 C56.268,22.4236418 55.824,22.4597313 55.752,22.5920597 C56.8695052,23.0752342 57.9283559,23.6846797 58.908,24.4085672 C59.5441448,24.9622114 60.0906579,25.6115419 60.528,26.3333433 C60.528,26.3333433 60.528,26.4295821 60.528,26.4777015 C60.528,26.5258209 56.436,24.6732239 57.516,32.1076716 C58.596,39.5421194 63.432,45.857791 64.032,58.032 C64.032,58.032 80.988,60.0530149 84.012,53.520806 L86.544,46.026209 C86.544,46.026209 82.464,45.3525373 82.944,42.0683881 C83.604,37.5090746 87.072,37.400806 89.664,39.4218209 L92.64,31.434 C92.64,31.434 100.176,26.4777015 100.608,23.3138507 C101.04,20.15 100.992,9.07050746 94.8,11.1035522 Z" id="Path" fill="#263238"></path>
                        <polygon id="Path" fill="#FF725E" points="8.052 386.025881 5.052 399.451194 25.776 402.025582 26.52 388.720567"></polygon>
                        <path d="M17.412,386.687522 C17.4001259,388.758335 17.1749311,390.82238 16.74,392.846806 C16.5052575,394.890505 16.0670739,396.905522 15.432,398.861731 C15.6827156,394.731505 16.3460355,390.636902 17.412,386.639403 L17.412,386.687522 Z" id="Path" fill="#263238"></path>
                        <path d="M25.86,400.59403 C24.850781,400.561272 23.8466344,400.436448 22.86,400.221104 L15.66,399.018119 C12.84,398.548955 10.308,398.079791 8.46,397.670776 C7.46246981,397.50548 6.48507902,397.235323 5.544,396.864776 C6.55428198,396.883223 7.5598213,397.00822 8.544,397.237701 L15.744,398.440687 C18.552,398.909851 21.096,399.379015 22.944,399.78803 C23.9440272,399.941781 24.9226788,400.212286 25.86,400.59403 L25.86,400.59403 Z" id="Path" fill="#263238"></path>
                        <path d="M38.796,175.010269 L0.396,391.162627 L33.252,393.027254 C33.252,393.027254 68.148,206.708925 73.272,206.251791 C75.42,206.047284 76.284,391.511493 78,391.162627 C79.716,390.813761 113.508,391.764119 113.508,391.764119 C113.508,391.764119 108.936,172.267463 109.02,172.267463 L38.796,175.010269 Z" id="Path" fill="#263238"></path>
                        <path d="M87.336,201.704507 C87.336,201.872925 81.672,203.232299 74.616,204.73603 C67.56,206.239761 61.8,207.322448 61.7638304,207.142 C61.728,206.961552 67.428,205.614209 74.484,204.110478 C81.54,202.606746 87.3,201.53609 87.336,201.704507 Z" id="Path" fill="#455A64"></path>
                        <path d="M35.688,380.335761 C35.688,380.516209 28.26,380.41997 19.104,380.143284 C9.948,379.866597 2.532,379.481642 2.532,379.313224 C2.532,379.144806 9.96,379.229015 19.116,379.505701 C28.272,379.782388 35.688,380.143284 35.688,380.335761 Z" id="Path" fill="#455A64"></path>
                        <path d="M113.292,380.359821 C113.292,380.528239 105.264,380.432 95.388,380.131254 C85.512,379.830507 77.496,379.457582 77.496,379.289164 C77.496,379.120746 85.512,379.216985 95.4,379.505701 C105.288,379.794418 113.292,380.143284 113.292,380.359821 Z" id="Path" fill="#455A64"></path>
                        <path d="M55.2,207.695348 C55.368,207.695348 47.244,246.287134 37.044,293.805045 C26.844,341.322955 18.444,379.830507 18.276,379.794443 C18.108,379.758328 26.232,341.214687 36.432,293.672716 C46.632,246.130746 55.02,207.659284 55.2,207.695348 Z" id="Path" fill="#455A64"></path>
                        <path d="M95.532,379.818478 C95.5182806,379.670428 95.5182806,379.521423 95.532,379.373373 C95.532,379.048567 95.532,378.615493 95.46,378.062119 C95.46,376.859134 95.34,375.186985 95.244,373.021612 C95.064,368.654776 94.86,362.315045 94.632,354.483612 C94.176,338.844806 93.72,317.191075 93.612,293.299791 C93.504,269.408507 93.732,247.766806 94.044,232.10394 C94.188,224.272507 94.344,217.944806 94.488,213.56594 C94.56,211.400567 94.608,209.716388 94.656,208.525433 C94.656,207.97206 94.656,207.538985 94.656,207.214179 C94.6398461,207.066253 94.6398461,206.917001 94.656,206.769075 C94.6748293,206.916842 94.6748293,207.066411 94.656,207.214179 L94.656,208.525433 C94.656,209.728418 94.656,211.400567 94.656,213.56594 C94.596,217.980896 94.512,224.308597 94.404,232.11597 C94.212,247.754776 94.044,269.408507 94.164,293.299791 C94.284,317.191075 94.656,338.820746 94.992,354.483612 C95.172,362.278955 95.316,368.606657 95.424,373.021612 C95.424,375.174955 95.496,376.871164 95.52,378.062119 C95.52,378.615493 95.52,379.048567 95.52,379.373373 C95.54282,379.52063 95.5468524,379.6702 95.532,379.818478 L95.532,379.818478 Z" id="Path" fill="#455A64"></path>
                        <path d="M168.156,23.614597 C168.156,23.614597 142.716,62.1101194 140.556,64.239403 C138.396,66.3686866 98.556,70.603194 98.556,70.603194 C86.316,67.8363284 46.764,68.750597 39.3,74.2121493 L39.3,74.2121493 C32.832,77.8211045 24.984,86.242 20.94,106.127343 C14.04,140.147761 7.14,152.682866 20.94,157.434657 C26.457222,159.32077 32.143806,160.666384 37.92,161.452627 L37.536,176.850836 L109.056,172.387761 L105.456,134.156896 C105.024,123.414239 104.82,112.226478 104.556,102.313881 C109.032,100.617672 150.624,84.8345075 153.48,84.4254925 C156.336,84.0164776 183.732,33.5031343 183.732,33.5031343 C184.548,27.5002388 168.156,23.614597 168.156,23.614597 Z" id="Path" fill="#FF725E"></path>
                        <path d="M39.888,93.2313433 C40.056,93.2313433 39.672,111.973851 39.036,135.071164 C38.4,158.168478 37.728,176.898955 37.548,176.898955 C37.368,176.898955 37.764,158.156448 38.412,135.059134 C39.06,111.961821 39.72,93.2313433 39.888,93.2313433 Z" id="Path" fill="#263238"></path>
                        <path d="M144.144,72.9008955 C143.189923,71.6371833 142.481597,70.2047633 142.056,68.6784179 C141.44334,67.2406533 140.945769,65.7562975 140.568,64.239403 C141.515405,65.5055384 142.219399,66.9374259 142.644,68.4618806 C143.248625,69.9039247 143.749897,71.3873591 144.144,72.9008955 Z" id="Path" fill="#263238"></path>
                        <path d="M147,69.6287761 C145.786273,68.9435734 144.644506,68.137512 143.592,67.222806 C142.396904,66.458769 141.368286,65.460328 140.568,64.2875224 C141.777527,64.9793725 142.918666,65.7849908 143.976,66.6934925 C145.164347,67.4660625 146.191424,68.4630079 147,69.6287761 L147,69.6287761 Z" id="Path" fill="#263238"></path>
                        <path d="M182.304,36.5707463 C181.458654,36.1649965 180.654841,35.6774801 179.904,35.1151343 C178.44,34.1888358 176.412,32.9377313 174.084,31.6866269 C171.756,30.4355224 169.596,29.4370448 168.012,28.7393134 C167.127163,28.4217991 166.275166,28.0189141 165.468,27.5363284 C166.400621,27.6904231 167.311231,27.9570151 168.18,28.3302985 C172.449807,29.9264319 176.486007,32.0911703 180.18,34.7662687 C180.960663,35.276115 181.674263,35.8823649 182.304,36.5707463 Z" id="Path" fill="#263238"></path>
                        <path d="M39.036,135.251612 C37.5457651,135.341008 36.0508616,135.19074 34.608,134.806507 C33.122425,134.601144 31.6891338,134.115388 30.384,133.374955 C31.8573944,133.517105 33.3151836,133.790869 34.74,134.192985 C36.2075746,134.380526 37.6489397,134.735709 39.036,135.251612 L39.036,135.251612 Z" id="Path" fill="#263238"></path>
                        <path d="M105.096,70.0618507 C103.799017,70.2846667 102.516673,70.5859637 101.256,70.9640896 C95.0785167,72.9914699 90.9353442,78.8121903 91.032,85.3277313 C91.0950124,86.6450457 91.2271956,87.9581184 91.428,89.2614925 C91.2415506,88.9499975 91.1115469,88.607889 91.044,88.2509851 C90.7808084,87.3013902 90.6277965,86.3245219 90.588,85.3397612 C90.2498152,78.5542429 94.6126676,72.4270704 101.124,70.5430448 C102.06512,70.2583202 103.035234,70.0807633 104.016,70.0137313 C104.375872,69.9627105 104.742062,69.9790261 105.096,70.0618507 L105.096,70.0618507 Z" id="Path" fill="#263238"></path>
                        <path d="M109.068,172.435881 C109.068,172.616328 93.072,173.747134 73.332,174.974179 C53.592,176.201224 37.56,177.067373 37.5479933,176.898955 C37.536,176.730537 53.544,175.587701 73.296,174.348627 C93.0479933,173.109552 109.056,172.267463 109.068,172.435881 Z" id="Path" fill="#263238"></path>
                        <path d="M80.58,69.3039701 C80.6831085,69.5922416 80.7555113,69.8906379 80.796,70.1941791 C80.796,70.4949254 80.94,70.8558209 80.988,71.2888955 C81.036,71.7219701 81.072,72.2392537 81.132,72.8046567 C81.2745389,76.0534318 80.7475753,79.296791 79.584,82.3322985 C77.881477,86.8863144 74.753377,90.7650154 70.668,93.3877313 C70.0839279,93.7591922 69.474411,94.0888285 68.844,94.3741791 C68.2128088,94.6819056 67.5636226,94.9510641 66.9,95.1801791 C65.568,95.6613731 64.188,96.0703881 62.82,96.5636119 C61.4308824,97.0202549 60.1013933,97.6422265 58.86,98.416209 C57.6194415,99.2579598 56.5215112,100.293638 55.608,101.483821 C53.8969748,103.960209 52.3187392,106.526202 50.88,109.170896 C49.4991861,111.699877 47.4744505,113.816817 45.012,115.306119 C42.6815567,116.486812 40.0604149,116.967227 37.464,116.689552 C35.2241205,116.484279 33.0424591,115.859979 31.032,114.848985 C28.1426439,113.38409 25.51836,111.444527 23.268,109.110746 C22.464,108.304746 21.864,107.655134 21.468,107.22206 C21.2439818,107.010283 21.0465279,106.771941 20.88,106.512299 C21.1160715,106.70311 21.340477,106.907987 21.552,107.125821 L23.436,108.942328 C25.720572,111.177953 28.3403141,113.041095 31.2,114.46403 C33.1749541,115.41401 35.3054607,115.996873 37.488,116.184299 C39.9715346,116.414892 42.4691708,115.930814 44.688,114.788836 C47.0575476,113.344605 49.0002398,111.293267 50.316,108.84609 C51.7699194,106.17555 53.3724477,103.589061 55.116,101.098866 C56.0731376,99.8556008 57.2238919,98.7751004 58.524,97.8989254 C59.8050461,97.093269 61.1791507,96.4469241 62.616,95.9741493 L66.696,94.6147761 C67.3474402,94.3937256 67.9846514,94.1325825 68.604,93.8328358 C69.2163285,93.568363 69.8062609,93.254559 70.368,92.8945075 C74.3830294,90.3589017 77.4791762,86.5971721 79.2,82.1638806 C80.3862849,79.1935286 80.9696651,76.0158081 80.916,72.8166866 C80.916,72.2512836 80.916,71.7580597 80.844,71.3129552 C80.772,70.8678507 80.736,70.5069552 80.7,70.2182388 C80.6331788,69.9176273 80.5930222,69.611678 80.58,69.3039701 Z" id="Path" fill="#263238"></path>
                        <path d="M107.664,157.759463 C107.664,157.759463 107.388,157.566985 106.86,157.242179 C106.10604,156.753808 105.267631,156.411082 104.388,156.231672 C102.972827,156.018941 101.546331,155.890397 100.116,155.846716 C98.448,155.714388 96.516,155.702358 94.416,155.618149 C92.0895679,155.578525 89.7765812,155.255355 87.528,154.655761 C84.9466385,153.920022 82.5110158,152.743946 80.328,151.179134 C77.8995315,149.443181 75.8868796,147.187184 74.436,144.574746 C72.8844515,141.763879 72.0593804,138.608402 72.036,135.39597 C71.9415922,129.034611 75.471656,123.175442 81.132,120.298507 C82.3795256,119.673845 83.7085702,119.228378 85.08,118.975224 C86.3607579,118.760505 87.6574726,118.655865 88.956,118.662448 C91.2500167,118.733263 93.546206,118.664969 95.832,118.45794 C99.1785498,118.243459 102.194172,116.359091 103.86,113.441493 C104.262028,112.635831 104.514151,111.763435 104.604,110.867104 C104.676,110.253582 104.676,109.916746 104.7,109.916746 C104.714668,109.996271 104.714668,110.077818 104.7,110.157343 C104.7,110.325761 104.7,110.566358 104.7,110.879134 C104.650504,111.803183 104.426543,112.709423 104.04,113.549761 C103.408696,114.879697 102.440484,116.020384 101.232,116.85797 C99.6423082,117.975775 97.7977505,118.674893 95.868,118.891015 C93.564307,119.132695 91.2477491,119.229124 88.932,119.179731 C87.6608436,119.185843 86.3924234,119.298514 85.14,119.516567 C83.825892,119.771426 82.5536454,120.208709 81.36,120.815791 C75.9184239,123.60357 72.5272139,129.24633 72.612,135.37191 C72.6414357,138.482833 73.4413967,141.537688 74.94,144.26197 C76.3410639,146.797004 78.2833169,148.990555 80.628,150.68591 C82.750164,152.226717 85.1206557,153.390496 87.636,154.126448 C89.8423179,154.741038 92.1149963,155.084404 94.404,155.148985 C96.516,155.257254 98.436,155.305373 100.116,155.473791 C101.557612,155.538939 102.993022,155.703739 104.412,155.967015 C105.31155,156.198455 106.156021,156.607427 106.896,157.17 C107.091817,157.308134 107.280088,157.456716 107.46,157.615104 C107.535868,157.650945 107.604906,157.699799 107.664,157.759463 Z" id="Path" fill="#263238"></path>
                        <path d="M67.92,175.371164 C67.952542,174.510407 67.9043301,173.64849 67.776,172.796776 C67.3306139,170.486527 66.0048467,168.441147 64.08,167.094627 C63.4463517,166.674028 62.7605306,166.338353 62.04,166.096149 C61.2546027,165.874862 60.4516253,165.721917 59.64,165.639015 C57.7457424,165.596138 55.862137,165.341945 54.024,164.881134 C53.0144165,164.54259 52.0922817,163.983824 51.324,163.245075 C50.5487697,162.4636 49.9296641,161.540798 49.5,160.526328 C48.6314847,158.398444 48.3617011,156.072534 48.72,153.801642 C49.392,149.170149 51.42,145.188269 51.768,141.266537 C52.013188,139.436015 51.8450486,137.573659 51.276,135.817015 C50.7559569,134.304956 49.7838719,132.990217 48.492,132.051672 C46.5978854,130.662222 44.2438431,130.055022 41.916,130.355463 C41.073189,130.514939 40.246002,130.748415 39.444,131.053194 C40.1681906,130.572601 40.9864583,130.252683 41.844,130.114866 C44.2537354,129.706679 46.7265846,130.273431 48.72,131.690776 C50.1069998,132.667215 51.1590173,134.049585 51.732,135.648597 C52.3519471,137.472816 52.5489371,139.414702 52.308,141.326687 C51.96,145.380746 49.908,149.410746 49.308,153.885851 C48.9633154,156.045096 49.2122367,158.257689 50.028,160.285731 C50.4294178,161.22718 50.9987309,162.087351 51.708,162.82403 C52.4065425,163.50205 53.2468582,164.015712 54.168,164.327761 C55.9665714,164.787855 57.8090246,165.054021 59.664,165.121731 C60.5268235,165.210411 61.3788979,165.383667 62.208,165.639015 C65.3346366,166.722564 67.5888387,169.475254 68.04,172.760687 C68.1278823,173.407311 68.1278823,174.062898 68.04,174.709522 C68.0206292,174.933333 67.9804548,175.154842 67.92,175.371164 L67.92,175.371164 Z" id="Path" fill="#263238"></path>
                        <path d="M65.52,108.81 C65.52,108.81 65.772,108.545343 66.372,108.364896 C67.2325299,108.140276 68.1427005,108.20364 68.964,108.545343 C69.5394395,108.782614 70.055673,109.144054 70.476,109.60397 C70.9501245,110.153495 71.2508294,110.831764 71.34,111.552806 C71.5622872,113.248223 70.7426093,114.910657 69.264,115.763254 C67.7223895,116.497439 65.8896462,116.211106 64.644,115.041463 C64.1116955,114.541521 63.7434384,113.891273 63.588,113.176836 C63.4687876,112.561383 63.4975828,111.926312 63.672,111.324239 C63.9097794,110.461202 64.4402084,109.708246 65.172,109.194955 C65.4192187,108.985865 65.7255606,108.859658 66.048,108.83406 C66.048,108.83406 65.76,109.014507 65.316,109.387433 C64.7130939,109.927029 64.2935279,110.642066 64.116,111.432507 C63.8013883,112.587087 64.1636201,113.820807 65.052,114.620418 C66.126564,115.592115 67.6770704,115.824322 68.988,115.209881 C70.2484316,114.470819 70.9544768,113.055216 70.788,111.600925 C70.6480279,110.417718 69.8885224,109.399467 68.796,108.930299 C68.0499855,108.572106 67.212775,108.450408 66.396,108.581433 C65.844,108.701731 65.544,108.858119 65.52,108.81 Z" id="Path" fill="#263238"></path>
                        <path d="M29.544,160.093254 C29.412,160.093254 29.976,157.976 30.108,154.535463 C30.1554032,153.601749 30.1554032,152.666222 30.108,151.732507 C30.108,150.722 29.916,149.651343 29.784,148.520537 C29.3858859,146.088932 28.7467192,143.703222 27.876,141.398866 C26.96727,139.113499 25.8251939,136.928481 24.468,134.878687 C23.8601907,133.995416 23.2073227,133.144175 22.512,132.328358 C21.9226844,131.596589 21.2937379,130.897806 20.628,130.235164 C18.228,127.829194 16.38,126.626209 16.464,126.542 C16.9201462,126.753081 17.350906,127.015408 17.748,127.32394 C18.2456709,127.642076 18.7226354,127.991648 19.176,128.370537 C19.7925733,128.854238 20.3815044,129.372341 20.94,129.922388 C21.6371247,130.571579 22.2943313,131.262559 22.908,131.991522 C23.6232752,132.818866 24.2961431,133.682119 24.924,134.57794 C26.3268213,136.652125 27.5054588,138.870088 28.44,141.194358 C29.3235671,143.525898 29.9551782,145.945702 30.324,148.412269 C30.4764875,149.496997 30.56863,150.589393 30.6,151.684388 C30.6613841,152.63375 30.6613841,153.586101 30.6,154.535463 C30.5561206,155.317222 30.4720086,156.096189 30.348,156.869254 C30.2751039,157.457585 30.162851,158.040341 30.012,158.613582 C29.9177643,159.124341 29.760559,159.621376 29.544,160.093254 L29.544,160.093254 Z" id="Path" fill="#263238"></path>
                        <path d="M154.056,83.9442985 C153.441237,83.7243247 152.843598,83.4589399 152.268,83.1503284 C151.128,82.6210149 149.484,81.8631343 147.372,81.0932239 C144.920419,80.1826352 142.377549,79.5413026 139.788,79.1804776 C136.627223,78.7260611 133.408762,78.8853424 130.308,79.6496418 C127.180749,80.3791397 124.290069,81.894312 121.908,84.0525672 C119.98502,85.8121915 118.515215,88.0120646 117.624,90.4644776 C117.038159,92.1223584 116.793238,93.8819904 116.904,95.6373134 C117,96.8402985 117.192,97.5620896 117.132,97.5741194 C117.072,97.5861493 117.048,97.4177313 116.952,97.0929254 C116.82397,96.6227831 116.727751,96.1445113 116.664,95.6613731 C116.452367,93.8619356 116.64088,92.0378437 117.216,90.3201194 C118.0664,87.7620775 119.548351,85.461202 121.524,83.6315224 C123.939694,81.3885628 126.890187,79.8060812 130.092,79.0361194 C133.273175,78.2601485 136.5747,78.1130491 139.812,78.6030448 C142.43459,79.0028898 145.00317,79.7011181 147.468,80.684209 C149.112516,81.3346529 150.715546,82.0859334 152.268,82.933791 C152.82,83.2345373 153.252,83.4751343 153.528,83.6555821 C153.720547,83.7176743 153.89968,83.8156261 154.056,83.9442985 L154.056,83.9442985 Z" id="Path" fill="#263238"></path>
                        <path d="M163.884,30.0746269 C163.884,30.0746269 164.004,30.1588358 164.208,30.3633433 C164.507973,30.6453832 164.784864,30.9511226 165.036,31.2776119 C165.985216,32.4718796 166.734948,33.8125666 167.256,35.2474627 C168.040781,37.3845724 168.363908,39.6643889 168.204,41.9360597 C168.019078,44.7269684 167.122453,47.4235366 165.6,49.7674925 C164.039412,52.0965402 161.890279,53.9687371 159.372,55.1929552 C157.344518,56.2089667 155.131152,56.7984825 152.868,56.9252537 C151.347315,57.0229618 149.820753,56.8808861 148.344,56.504209 C147.93558,56.4089731 147.53454,56.2843415 147.144,56.1312836 C146.88,56.0350448 146.748,55.9748955 146.76,55.9508358 C148.723807,56.4180607 150.744977,56.5963661 152.76,56.4801493 C154.953683,56.2974366 157.090165,55.6843269 159.048,54.6756716 C161.466819,53.4769385 163.534131,51.6697577 165.048,49.4306567 C167.740529,45.2560905 168.385635,40.0779696 166.8,35.3677612 C166.099445,33.466237 165.116353,31.681723 163.884,30.0746269 Z" id="Path" fill="#263238"></path>
                        <path d="M85.536,69.1355522 C82.0712261,69.4794515 78.5888119,69.612024 75.108,69.5325373 C71.6305491,69.6630645 68.1484369,69.5867415 64.68,69.3039701 C68.1447739,68.9600709 71.6271881,68.8274984 75.108,68.9069851 C78.5854509,68.7764579 82.0675631,68.8527809 85.536,69.1355522 L85.536,69.1355522 Z" id="Path" fill="#263238"></path>
                    </g>
                </g>
            </g>
        </g>
    </g>
</svg>