<?xml version="1.0" encoding="UTF-8"?>
<svg width="1440px" height="570px" viewBox="0 0 1440 570" version="1.1" xmlns="http://www.w3.org/2000/svg" xmlns:xlink="http://www.w3.org/1999/xlink">
    <title>bg1</title>
    <defs>
        <rect id="path-1" x="0" y="0" width="1440" height="570"></rect>
        <rect id="path-3" x="0" y="0" width="726" height="571"></rect>
    </defs>
    <g id="Page-1" stroke="none" stroke-width="1" fill="none" fill-rule="evenodd">
        <g id="bg1">
            <mask id="mask-2" fill="white">
                <use xlink:href="#path-1"></use>
            </mask>
            <use id="Mask" fill="#F47824" xlink:href="#path-1"></use>
            <g id="Who-We-Are?" mask="url(#mask-2)">
                <g transform="translate(0.000000, -1.000000)">
                    <mask id="mask-4" fill="white">
                        <use xlink:href="#path-3"></use>
                    </mask>
                    <g id="Mask" stroke="none" fill="none"></g>
                    <g id="Group-35" stroke="none" stroke-width="1" fill="none" fill-rule="evenodd" mask="url(#mask-4)">
                        <g transform="translate(-55.000000, 33.000000)">
                            <g id="Group" opacity="0.200000003" stroke="none" stroke-width="1" fill-rule="evenodd" transform="translate(0.000000, 2.000000)">
                                <polygon id="Fill-7" fill="#F47824" points="552.064618 433.057575 609.77026 433.057575 609.77026 162.964662 552.064618 162.964662"></polygon>
                                <polygon id="Stroke-8" stroke="#FFFFFF" stroke-width="3.51585" stroke-linecap="round" stroke-linejoin="round" points="552.064618 433.057575 609.77026 433.057575 609.77026 162.964662 552.064618 162.964662"></polygon>
                                <polygon id="Fill-9" fill="#F47824" points="552.064618 573.170578 620.763297 573.170578 620.763297 187.705179 552.064618 187.705179"></polygon>
                                <polygon id="Stroke-10" stroke="#FFFFFF" stroke-width="4.2003" stroke-linecap="round" stroke-linejoin="round" points="552.064618 573.170578 620.763297 573.170578 620.763297 187.705179 552.064618 187.705179"></polygon>
                                <line x1="554.1263" y1="200.076412" x2="620.074769" y2="200.076412" id="Fill-11" fill="#F47824"></line>
                                <line x1="554.1263" y1="200.076412" x2="620.074769" y2="200.076412" id="Stroke-12" stroke="#FFFFFF" stroke-width="3.51585" stroke-linecap="round" stroke-linejoin="round"></line>
                                <line x1="554.1263" y1="213.82136" x2="620.074769" y2="213.82136" id="Fill-13" fill="#F47824"></line>
                                <line x1="554.1263" y1="213.82136" x2="620.074769" y2="213.82136" id="Stroke-14" stroke="#FFFFFF" stroke-width="3.51585" stroke-linecap="round" stroke-linejoin="round"></line>
                                <line x1="554.1263" y1="227.566308" x2="620.074769" y2="227.566308" id="Fill-15" fill="#F47824"></line>
                                <line x1="554.1263" y1="227.566308" x2="620.074769" y2="227.566308" id="Stroke-16" stroke="#FFFFFF" stroke-width="3.51585" stroke-linecap="round" stroke-linejoin="round"></line>
                                <line x1="554.1263" y1="241.311256" x2="620.074769" y2="241.311256" id="Fill-17" fill="#F47824"></line>
                                <line x1="554.1263" y1="241.311256" x2="620.074769" y2="241.311256" id="Stroke-18" stroke="#FFFFFF" stroke-width="3.51585" stroke-linecap="round" stroke-linejoin="round"></line>
                                <line x1="554.1263" y1="255.056205" x2="620.074769" y2="255.056205" id="Fill-19" fill="#F47824"></line>
                                <line x1="554.1263" y1="255.056205" x2="620.074769" y2="255.056205" id="Stroke-20" stroke="#FFFFFF" stroke-width="3.51585" stroke-linecap="round" stroke-linejoin="round"></line>
                                <line x1="554.1263" y1="268.803104" x2="620.074769" y2="268.803104" id="Fill-21" fill="#F47824"></line>
                                <line x1="554.1263" y1="268.803104" x2="620.074769" y2="268.803104" id="Stroke-22" stroke="#FFFFFF" stroke-width="3.51585" stroke-linecap="round" stroke-linejoin="round"></line>
                                <line x1="554.1263" y1="282.548052" x2="620.074769" y2="282.548052" id="Fill-23" fill="#F47824"></line>
                                <line x1="554.1263" y1="282.548052" x2="620.074769" y2="282.548052" id="Stroke-24" stroke="#FFFFFF" stroke-width="3.51585" stroke-linecap="round" stroke-linejoin="round"></line>
                                <line x1="554.1263" y1="296.293" x2="620.074769" y2="296.293" id="Fill-25" fill="#F47824"></line>
                                <line x1="554.1263" y1="296.293" x2="620.074769" y2="296.293" id="Stroke-26" stroke="#FFFFFF" stroke-width="3.51585" stroke-linecap="round" stroke-linejoin="round"></line>
                                <line x1="554.1263" y1="310.037948" x2="620.074769" y2="310.037948" id="Fill-27" fill="#F47824"></line>
                                <line x1="554.1263" y1="310.037948" x2="620.074769" y2="310.037948" id="Stroke-28" stroke="#FFFFFF" stroke-width="3.51585" stroke-linecap="round" stroke-linejoin="round"></line>
                                <line x1="554.1263" y1="323.782896" x2="620.074769" y2="323.782896" id="Fill-29" fill="#F47824"></line>
                                <line x1="554.1263" y1="323.782896" x2="620.074769" y2="323.782896" id="Stroke-30" stroke="#FFFFFF" stroke-width="3.51585" stroke-linecap="round" stroke-linejoin="round"></line>
                                <line x1="554.1263" y1="337.527844" x2="620.074769" y2="337.527844" id="Fill-31" fill="#F47824"></line>
                                <line x1="554.1263" y1="337.527844" x2="620.074769" y2="337.527844" id="Stroke-32" stroke="#FFFFFF" stroke-width="3.51585" stroke-linecap="round" stroke-linejoin="round"></line>
                                <line x1="554.1263" y1="351.272792" x2="620.074769" y2="351.272792" id="Fill-33" fill="#F47824"></line>
                                <line x1="554.1263" y1="351.272792" x2="620.074769" y2="351.272792" id="Stroke-34" stroke="#FFFFFF" stroke-width="3.51585" stroke-linecap="round" stroke-linejoin="round"></line>
                                <line x1="554.1263" y1="365.01774" x2="620.074769" y2="365.01774" id="Fill-35" fill="#F47824"></line>
                                <line x1="554.1263" y1="365.01774" x2="620.074769" y2="365.01774" id="Stroke-36" stroke="#FFFFFF" stroke-width="3.51585" stroke-linecap="round" stroke-linejoin="round"></line>
                                <line x1="554.1263" y1="378.762688" x2="620.074769" y2="378.762688" id="Fill-37" fill="#F47824"></line>
                                <line x1="554.1263" y1="378.762688" x2="620.074769" y2="378.762688" id="Stroke-38" stroke="#FFFFFF" stroke-width="3.51585" stroke-linecap="round" stroke-linejoin="round"></line>
                                <line x1="554.1263" y1="392.507636" x2="620.074769" y2="392.507636" id="Fill-39" fill="#F47824"></line>
                                <line x1="554.1263" y1="392.507636" x2="620.074769" y2="392.507636" id="Stroke-40" stroke="#FFFFFF" stroke-width="3.51585" stroke-linecap="round" stroke-linejoin="round"></line>
                                <line x1="554.1263" y1="406.254536" x2="620.074769" y2="406.254536" id="Fill-41" fill="#F47824"></line>
                                <line x1="554.1263" y1="406.254536" x2="620.074769" y2="406.254536" id="Stroke-42" stroke="#FFFFFF" stroke-width="3.51585" stroke-linecap="round" stroke-linejoin="round"></line>
                                <line x1="554.1263" y1="419.999484" x2="620.074769" y2="419.999484" id="Fill-43" fill="#F47824"></line>
                                <line x1="554.1263" y1="419.999484" x2="620.074769" y2="419.999484" id="Stroke-44" stroke="#FFFFFF" stroke-width="3.51585" stroke-linecap="round" stroke-linejoin="round"></line>
                                <line x1="554.1263" y1="433.744432" x2="620.074769" y2="433.744432" id="Fill-45" fill="#F47824"></line>
                                <line x1="554.1263" y1="433.744432" x2="620.074769" y2="433.744432" id="Stroke-46" stroke="#FFFFFF" stroke-width="3.51585" stroke-linecap="round" stroke-linejoin="round"></line>
                                <line x1="554.1263" y1="458.877159" x2="620.074769" y2="458.877159" id="Fill-47" fill="#F47824"></line>
                                <line x1="554.1263" y1="458.877159" x2="620.074769" y2="458.877159" id="Stroke-48" stroke="#FFFFFF" stroke-width="3.51585" stroke-linecap="round" stroke-linejoin="round"></line>
                                <line x1="554.1263" y1="472.622107" x2="620.074769" y2="472.622107" id="Fill-49" fill="#F47824"></line>
                                <line x1="554.1263" y1="472.622107" x2="620.074769" y2="472.622107" id="Stroke-50" stroke="#FFFFFF" stroke-width="3.51585" stroke-linecap="round" stroke-linejoin="round"></line>
                                <line x1="554.1263" y1="486.367055" x2="620.074769" y2="486.367055" id="Fill-51" fill="#F47824"></line>
                                <line x1="554.1263" y1="486.367055" x2="620.074769" y2="486.367055" id="Stroke-52" stroke="#FFFFFF" stroke-width="3.51585" stroke-linecap="round" stroke-linejoin="round"></line>
                                <line x1="554.1263" y1="500.112003" x2="620.074769" y2="500.112003" id="Fill-53" fill="#F47824"></line>
                                <line x1="554.1263" y1="500.112003" x2="620.074769" y2="500.112003" id="Stroke-54" stroke="#FFFFFF" stroke-width="3.51585" stroke-linecap="round" stroke-linejoin="round"></line>
                                <line x1="554.1263" y1="513.856951" x2="620.074769" y2="513.856951" id="Fill-55" fill="#F47824"></line>
                                <line x1="554.1263" y1="513.856951" x2="620.074769" y2="513.856951" id="Stroke-56" stroke="#FFFFFF" stroke-width="3.51585" stroke-linecap="round" stroke-linejoin="round"></line>
                                <line x1="554.1263" y1="527.601899" x2="620.074769" y2="527.601899" id="Fill-57" fill="#F47824"></line>
                                <line x1="554.1263" y1="527.601899" x2="620.074769" y2="527.601899" id="Stroke-58" stroke="#FFFFFF" stroke-width="3.51585" stroke-linecap="round" stroke-linejoin="round"></line>
                                <line x1="554.1263" y1="447.48938" x2="620.074769" y2="447.48938" id="Fill-63" fill="#F47824"></line>
                                <line x1="554.1263" y1="447.48938" x2="620.074769" y2="447.48938" id="Stroke-64" stroke="#FFFFFF" stroke-width="3.51585" stroke-linecap="round" stroke-linejoin="round"></line>
                                <polyline id="Fill-65" fill="#F47824" points="194.157005 600.756088 194.157005 332.764724 122.33362 332.764724 122.33362 556.036224"></polyline>
                                <polyline id="Stroke-66" stroke="#FFFFFF" stroke-width="3.8805" stroke-linecap="round" stroke-linejoin="round" points="194.157005 600.756088 194.157005 332.764724 122.33362 332.764724 122.33362 556.036224"></polyline>
                                <polygon id="Fill-67" fill="#F47824" points="165.039891 567.763529 207.746162 567.763529 207.746162 367.739802 165.039891 367.739802"></polygon>
                                <polygon id="Stroke-68" stroke="#FFFFFF" stroke-width="3.8805" stroke-linecap="round" stroke-linejoin="round" points="165.039891 567.763529 207.746162 567.763529 207.746162 367.739802 165.039891 367.739802"></polygon>
                                <line x1="149.623112" y1="297.309627" x2="149.623112" y2="330.481705" id="Fill-69" fill="#F47824"></line>
                                <line x1="149.623112" y1="297.309627" x2="149.623112" y2="330.481705" id="Stroke-70" stroke="#FFFFFF" stroke-width="3.8805" stroke-linecap="round" stroke-linejoin="round"></line>
                                <polyline id="Fill-131" fill="#F47824" points="398.956607 589.124396 400.897357 313.364912 468.839241 270.641227 468.839241 595.920769 398.956607 589.124396"></polyline>
                                <path d="M398.956607,589.124396 L400.897357,313.364912 L468.839241,270.641227 L468.839241,595.920769 L398.956607,589.124396 Z M469.810591,592.037685 L469.810591,228.889289 L469.810591,592.037685 Z M465.927139,312.395117 L447.487081,312.395117 L465.927139,312.395117 Z M465.927139,334.727731 L420.308767,334.727731 L420.308767,588.154601 L465.927139,334.727731 Z M465.927139,368.711549 L420.308767,368.711549 L465.927139,368.711549 Z M456.221435,335.697526 L456.221435,367.739802 L456.221435,335.697526 Z M446.51573,335.697526 L446.51573,367.739802 L446.51573,335.697526 Z M436.810025,335.697526 L436.810025,367.739802 L436.810025,335.697526 Z" id="Stroke-132" stroke="#FFFFFF" stroke-width="3.8805" stroke-linecap="round" stroke-linejoin="round"></path>
                                <polygon id="Fill-133" fill="#F47824" points="420.308767 598.834058 473.692093 598.834058 473.692093 368.711549 420.308767 368.711549"></polygon>
                                <polygon id="Stroke-134" stroke="#FFFFFF" stroke-width="3.8805" stroke-linecap="round" stroke-linejoin="round" points="420.308767 598.834058 473.692093 598.834058 473.692093 368.711549 420.308767 368.711549"></polygon>
                                <line x1="473.692093" y1="379.392958" x2="421.280117" y2="379.392958" id="Fill-135" fill="#F47824"></line>
                                <line x1="473.692093" y1="379.392958" x2="421.280117" y2="379.392958" id="Stroke-136" stroke="#FFFFFF" stroke-width="3.8805" stroke-linecap="round" stroke-linejoin="round"></line>
                                <line x1="473.692093" y1="389.10262" x2="421.280117" y2="389.10262" id="Fill-137" fill="#F47824"></line>
                                <line x1="473.692093" y1="389.10262" x2="421.280117" y2="389.10262" id="Stroke-138" stroke="#FFFFFF" stroke-width="3.8805" stroke-linecap="round" stroke-linejoin="round"></line>
                                <line x1="473.692093" y1="398.812282" x2="421.280117" y2="398.812282" id="Fill-139" fill="#F47824"></line>
                                <line x1="473.692093" y1="398.812282" x2="421.280117" y2="398.812282" id="Stroke-140" stroke="#FFFFFF" stroke-width="3.8805" stroke-linecap="round" stroke-linejoin="round"></line>
                                <line x1="473.692093" y1="408.521945" x2="421.280117" y2="408.521945" id="Fill-141" fill="#F47824"></line>
                                <line x1="473.692093" y1="408.521945" x2="421.280117" y2="408.521945" id="Stroke-142" stroke="#FFFFFF" stroke-width="3.8805" stroke-linecap="round" stroke-linejoin="round"></line>
                                <line x1="473.692093" y1="418.231607" x2="421.280117" y2="418.231607" id="Fill-143" fill="#F47824"></line>
                                <line x1="473.692093" y1="418.231607" x2="421.280117" y2="418.231607" id="Stroke-144" stroke="#FFFFFF" stroke-width="3.8805" stroke-linecap="round" stroke-linejoin="round"></line>
                                <line x1="473.692093" y1="427.941269" x2="421.280117" y2="427.941269" id="Fill-145" fill="#F47824"></line>
                                <line x1="473.692093" y1="427.941269" x2="421.280117" y2="427.941269" id="Stroke-146" stroke="#FFFFFF" stroke-width="3.8805" stroke-linecap="round" stroke-linejoin="round"></line>
                                <line x1="473.692093" y1="437.650932" x2="421.280117" y2="437.650932" id="Fill-147" fill="#F47824"></line>
                                <line x1="473.692093" y1="437.650932" x2="421.280117" y2="437.650932" id="Stroke-148" stroke="#FFFFFF" stroke-width="3.8805" stroke-linecap="round" stroke-linejoin="round"></line>
                                <line x1="473.692093" y1="447.360594" x2="421.280117" y2="447.360594" id="Fill-149" fill="#F47824"></line>
                                <line x1="473.692093" y1="447.360594" x2="421.280117" y2="447.360594" id="Stroke-150" stroke="#FFFFFF" stroke-width="3.8805" stroke-linecap="round" stroke-linejoin="round"></line>
                                <line x1="473.692093" y1="457.070256" x2="421.280117" y2="457.070256" id="Fill-151" fill="#F47824"></line>
                                <line x1="473.692093" y1="457.070256" x2="421.280117" y2="457.070256" id="Stroke-152" stroke="#FFFFFF" stroke-width="3.8805" stroke-linecap="round" stroke-linejoin="round"></line>
                                <line x1="473.692093" y1="466.779919" x2="421.280117" y2="466.779919" id="Fill-153" fill="#F47824"></line>
                                <line x1="473.692093" y1="466.779919" x2="421.280117" y2="466.779919" id="Stroke-154" stroke="#FFFFFF" stroke-width="3.8805" stroke-linecap="round" stroke-linejoin="round"></line>
                                <line x1="473.692093" y1="476.491532" x2="421.280117" y2="476.491532" id="Fill-155" fill="#F47824"></line>
                                <line x1="473.692093" y1="476.491532" x2="421.280117" y2="476.491532" id="Stroke-156" stroke="#FFFFFF" stroke-width="3.8805" stroke-linecap="round" stroke-linejoin="round"></line>
                                <line x1="473.692093" y1="486.201195" x2="421.280117" y2="486.201195" id="Fill-157" fill="#F47824"></line>
                                <line x1="473.692093" y1="486.201195" x2="421.280117" y2="486.201195" id="Stroke-158" stroke="#FFFFFF" stroke-width="3.8805" stroke-linecap="round" stroke-linejoin="round"></line>
                                <line x1="473.692093" y1="495.910857" x2="421.280117" y2="495.910857" id="Fill-159" fill="#F47824"></line>
                                <line x1="473.692093" y1="495.910857" x2="421.280117" y2="495.910857" id="Stroke-160" stroke="#FFFFFF" stroke-width="3.8805" stroke-linecap="round" stroke-linejoin="round"></line>
                                <line x1="473.692093" y1="505.620519" x2="421.280117" y2="505.620519" id="Fill-161" fill="#F47824"></line>
                                <line x1="473.692093" y1="505.620519" x2="421.280117" y2="505.620519" id="Stroke-162" stroke="#FFFFFF" stroke-width="3.8805" stroke-linecap="round" stroke-linejoin="round"></line>
                                <line x1="473.692093" y1="515.330182" x2="421.280117" y2="515.330182" id="Fill-163" fill="#F47824"></line>
                                <line x1="473.692093" y1="515.330182" x2="421.280117" y2="515.330182" id="Stroke-164" stroke="#FFFFFF" stroke-width="3.8805" stroke-linecap="round" stroke-linejoin="round"></line>
                                <line x1="473.692093" y1="525.039844" x2="421.280117" y2="525.039844" id="Fill-165" fill="#F47824"></line>
                                <line x1="473.692093" y1="525.039844" x2="421.280117" y2="525.039844" id="Stroke-166" stroke="#FFFFFF" stroke-width="3.8805" stroke-linecap="round" stroke-linejoin="round"></line>
                                <line x1="473.692093" y1="534.749506" x2="421.280117" y2="534.749506" id="Fill-167" fill="#F47824"></line>
                                <line x1="473.692093" y1="534.749506" x2="421.280117" y2="534.749506" id="Stroke-168" stroke="#FFFFFF" stroke-width="3.8805" stroke-linecap="round" stroke-linejoin="round"></line>
                                <polygon id="Fill-181" fill="#F47824" points="226.034081 573.588156 289.751174 573.588156 289.751174 250.336013 226.034081 250.336013"></polygon>
                                <polygon id="Stroke-182" stroke="#FFFFFF" stroke-width="3.8805" stroke-linecap="round" stroke-linejoin="round" points="226.034081 573.588156 289.751174 573.588156 289.751174 250.336013 226.034081 250.336013"></polygon>
                                <polygon id="Fill-183" fill="#F47824" points="240.446351 569.806539 304.161493 569.806539 304.161493 271.583705 240.446351 271.583705"></polygon>
                                <polygon id="Stroke-184" stroke="#FFFFFF" stroke-width="3.8805" stroke-linecap="round" stroke-linejoin="round" points="240.446351 569.806539 304.161493 569.806539 304.161493 271.583705 240.446351 271.583705"></polygon>
                                <polygon id="Fill-185" fill="#F47824" points="240.446351 597.124721 316.299476 597.124721 316.299476 298.901886 240.446351 298.901886"></polygon>
                                <polygon id="Stroke-186" stroke="#FFFFFF" stroke-width="3.8805" stroke-linecap="round" stroke-linejoin="round" points="240.446351 597.124721 316.299476 597.124721 316.299476 298.901886 240.446351 298.901886"></polygon>
                                <line x1="242.722588" y1="312.560977" x2="315.54073" y2="312.560977" id="Fill-187" fill="#F47824"></line>
                                <line x1="242.722588" y1="312.560977" x2="315.54073" y2="312.560977" id="Stroke-188" stroke="#FFFFFF" stroke-width="3.8805" stroke-linecap="round" stroke-linejoin="round"></line>
                                <line x1="242.722588" y1="327.736227" x2="315.54073" y2="327.736227" id="Fill-189" fill="#F47824"></line>
                                <line x1="242.722588" y1="327.736227" x2="315.54073" y2="327.736227" id="Stroke-190" stroke="#FFFFFF" stroke-width="3.8805" stroke-linecap="round" stroke-linejoin="round"></line>
                                <line x1="242.722588" y1="342.913429" x2="315.54073" y2="342.913429" id="Fill-191" fill="#F47824"></line>
                                <line x1="242.722588" y1="342.913429" x2="315.54073" y2="342.913429" id="Stroke-192" stroke="#FFFFFF" stroke-width="3.8805" stroke-linecap="round" stroke-linejoin="round"></line>
                                <line x1="242.722588" y1="358.09063" x2="315.54073" y2="358.09063" id="Fill-193" fill="#F47824"></line>
                                <line x1="242.722588" y1="358.09063" x2="315.54073" y2="358.09063" id="Stroke-194" stroke="#FFFFFF" stroke-width="3.8805" stroke-linecap="round" stroke-linejoin="round"></line>
                                <line x1="242.722588" y1="373.267831" x2="315.54073" y2="373.267831" id="Fill-195" fill="#F47824"></line>
                                <line x1="242.722588" y1="373.267831" x2="315.54073" y2="373.267831" id="Stroke-196" stroke="#FFFFFF" stroke-width="3.8805" stroke-linecap="round" stroke-linejoin="round"></line>
                                <line x1="242.722588" y1="388.443081" x2="315.54073" y2="388.443081" id="Fill-197" fill="#F47824"></line>
                                <line x1="242.722588" y1="388.443081" x2="315.54073" y2="388.443081" id="Stroke-198" stroke="#FFFFFF" stroke-width="3.8805" stroke-linecap="round" stroke-linejoin="round"></line>
                                <line x1="242.722588" y1="403.620282" x2="315.54073" y2="403.620282" id="Fill-199" fill="#F47824"></line>
                                <line x1="242.722588" y1="403.620282" x2="315.54073" y2="403.620282" id="Stroke-200" stroke="#FFFFFF" stroke-width="3.8805" stroke-linecap="round" stroke-linejoin="round"></line>
                                <line x1="242.722588" y1="418.797484" x2="315.54073" y2="418.797484" id="Fill-201" fill="#F47824"></line>
                                <line x1="242.722588" y1="418.797484" x2="315.54073" y2="418.797484" id="Stroke-202" stroke="#FFFFFF" stroke-width="3.8805" stroke-linecap="round" stroke-linejoin="round"></line>
                                <line x1="242.722588" y1="433.974685" x2="315.54073" y2="433.974685" id="Fill-203" fill="#F47824"></line>
                                <line x1="242.722588" y1="433.974685" x2="315.54073" y2="433.974685" id="Stroke-204" stroke="#FFFFFF" stroke-width="3.8805" stroke-linecap="round" stroke-linejoin="round"></line>
                                <line x1="242.722588" y1="449.149935" x2="315.54073" y2="449.149935" id="Fill-205" fill="#F47824"></line>
                                <line x1="242.722588" y1="449.149935" x2="315.54073" y2="449.149935" id="Stroke-206" stroke="#FFFFFF" stroke-width="3.8805" stroke-linecap="round" stroke-linejoin="round"></line>
                                <line x1="242.722588" y1="464.327136" x2="315.54073" y2="464.327136" id="Fill-207" fill="#F47824"></line>
                                <line x1="242.722588" y1="464.327136" x2="315.54073" y2="464.327136" id="Stroke-208" stroke="#FFFFFF" stroke-width="3.8805" stroke-linecap="round" stroke-linejoin="round"></line>
                                <line x1="242.722588" y1="479.504338" x2="315.54073" y2="479.504338" id="Fill-209" fill="#F47824"></line>
                                <line x1="242.722588" y1="479.504338" x2="315.54073" y2="479.504338" id="Stroke-210" stroke="#FFFFFF" stroke-width="3.8805" stroke-linecap="round" stroke-linejoin="round"></line>
                                <line x1="242.722588" y1="494.681539" x2="315.54073" y2="494.681539" id="Fill-211" fill="#F47824"></line>
                                <line x1="242.722588" y1="494.681539" x2="315.54073" y2="494.681539" id="Stroke-212" stroke="#FFFFFF" stroke-width="3.8805" stroke-linecap="round" stroke-linejoin="round"></line>
                                <line x1="242.722588" y1="509.856789" x2="315.54073" y2="509.856789" id="Fill-213" fill="#F47824"></line>
                                <line x1="242.722588" y1="509.856789" x2="315.54073" y2="509.856789" id="Stroke-214" stroke="#FFFFFF" stroke-width="3.8805" stroke-linecap="round" stroke-linejoin="round"></line>
                                <line x1="242.722588" y1="525.03399" x2="315.54073" y2="525.03399" id="Fill-215" fill="#F47824"></line>
                                <line x1="242.722588" y1="525.03399" x2="315.54073" y2="525.03399" id="Stroke-216" stroke="#FFFFFF" stroke-width="3.8805" stroke-linecap="round" stroke-linejoin="round"></line>
                                <polygon id="Fill-225" fill="#F47824" points="53.0263842 128.934013 68.4919253 128.934013 68.4919253 55.9944675 53.0263842 55.9944675"></polygon>
                                <polyline id="Stroke-226" stroke="#FFFFFF" stroke-width="3.8805" stroke-linecap="round" stroke-linejoin="round" points="53.0263842 128.934013 53.0263842 55.9944675 68.4919253 55.9944675 68.4919253 128.934013"></polyline>
                                <polyline id="Fill-227" fill="#F47824" points="42.714073 238.716029 42.714073 129.673555 72.1744757 129.673555 72.1744757 176.826688"></polyline>
                                <polyline id="Stroke-228" stroke="#FFFFFF" stroke-width="3.8805" stroke-linecap="round" stroke-linejoin="round" points="42.714073 238.716029 42.714073 129.673555 72.1744757 129.673555 72.1744757 176.826688"></polyline>
                                <polygon id="Fill-229" fill="#F47824" points="36.0862626 345.551584 61.8641149 345.551584 61.8641149 238.717981 36.0862626 238.717981"></polygon>
                                <polygon id="Stroke-230" stroke="#FFFFFF" stroke-width="3.8805" stroke-linecap="round" stroke-linejoin="round" points="36.0862626 345.551584 61.8641149 345.551584 61.8641149 238.717981 36.0862626 238.717981"></polygon>
                                <polyline id="Fill-231" fill="#F47824" points="61.8641149 279.978192 61.8641149 178.30187 81.7494966 178.30187 81.7494966 278.501058"></polyline>
                                <polyline id="Stroke-232" stroke="#FFFFFF" stroke-width="3.8805" stroke-linecap="round" stroke-linejoin="round" points="61.8641149 279.978192 61.8641149 178.30187 81.7494966 178.30187 81.7494966 278.501058"></polyline>
                                <polyline id="Fill-233" fill="#F47824" points="61.8641149 376.495279 61.8641149 279.97624 87.6400168 279.97624 87.6400168 375.020097"></polyline>
                                <polyline id="Stroke-234" stroke="#FFFFFF" stroke-width="3.8805" stroke-linecap="round" stroke-linejoin="round" points="61.8641149 376.495279 61.8641149 279.97624 87.6400168 279.97624 87.6400168 375.020097"></polyline>
                                <polyline id="Fill-235" fill="#F47824" points="61.1248742 559.952481 61.1248742 376.495279 99.4249581 376.495279 99.4249581 523.113912"></polyline>
                                <polyline id="Stroke-236" stroke="#FFFFFF" stroke-width="3.8805" stroke-linecap="round" stroke-linejoin="round" points="61.1248742 559.952481 61.1248742 376.495279 99.4249581 376.495279 99.4249581 523.113912"></polyline>
                                <polyline id="Fill-237" fill="#F47824" points="29.4584522 433.779555 29.4584522 345.551584 60.3895344 345.551584"></polyline>
                                <polyline id="Stroke-238" stroke="#FFFFFF" stroke-width="3.8805" stroke-linecap="round" stroke-linejoin="round" points="29.4584522 433.779555 29.4584522 345.551584 60.3895344 345.551584"></polyline>
                                <polygon id="Fill-241" fill="#F47824" points="75.1197357 523.668081 92.0598574 523.668081 92.0598574 453.858419 75.1197357 453.858419"></polygon>
                                <polygon id="Stroke-242" stroke="#FFFFFF" stroke-width="3.8805" stroke-linecap="round" stroke-linejoin="round" points="75.1197357 523.668081 92.0598574 523.668081 92.0598574 453.858419 75.1197357 453.858419"></polygon>
                                <polyline id="Fill-243" fill="#F47824" points="75.1197357 557.74361 75.1197357 523.851503 104.580138 523.851503 104.580138 555.901584"></polyline>
                                <polyline id="Stroke-244" stroke="#FFFFFF" stroke-width="3.8805" stroke-linecap="round" stroke-linejoin="round" points="75.1197357 557.74361 75.1197357 523.851503 104.580138 523.851503 104.580138 555.901584"></polyline>
                                <line x1="61.1268247" y1="0" x2="61.1268247" y2="53.0480065" id="Fill-253" fill="#F47824"></line>
                                <line x1="61.1268247" y1="0" x2="61.1268247" y2="53.0480065" id="Stroke-254" stroke="#FFFFFF" stroke-width="3.8805" stroke-linecap="round" stroke-linejoin="round"></line>
                                <path d="M774.113821,407.009688 C774.113821,412.660649 769.534039,417.240347 763.885382,417.240347 L714.607865,417.240347 C708.959207,417.240347 704.379425,412.660649 704.379425,407.009688 L774.113821,407.009688" id="Fill-257" fill="#F47824"></path>
                                <path d="M774.113821,407.009688 C774.113821,412.660649 769.534039,417.240347 763.885382,417.240347 L714.607865,417.240347 C708.959207,417.240347 704.379425,412.660649 704.379425,407.009688 L774.113821,407.009688 Z" id="Stroke-258" stroke="#FFFFFF" stroke-width="3.8805" stroke-linecap="round" stroke-linejoin="round"></path>
                                <path d="M645.577601,595.903208 L734.836535,595.903208 C734.836535,595.903208 766.641443,527.135539 743.044253,449.128471 C726.25432,393.623779 667.122861,307.487601 667.122861,307.487601 L647.62953,307.487601 L645.577601,595.903208" id="Fill-259" fill="#F47824"></path>
                                <path d="M645.577601,595.903208 L734.836535,595.903208 C734.836535,595.903208 766.641443,527.135539 743.044253,449.128471 C726.25432,393.623779 667.122861,307.487601 667.122861,307.487601 L647.62953,307.487601 L645.577601,595.903208 Z" id="Stroke-260" stroke="#FFFFFF" stroke-width="3.8805" stroke-linecap="round" stroke-linejoin="round"></path>
                                <path d="M665.070931,595.903208 L754.329866,595.903208 C754.329866,595.903208 786.134773,527.135539 762.537584,449.128471 C738.940394,371.123354 667.122861,307.487601 667.122861,307.487601 L665.070931,595.903208" id="Fill-261" fill="#F47824"></path>
                                <path d="M665.070931,595.903208 L754.329866,595.903208 C754.329866,595.903208 786.134773,527.135539 762.537584,449.128471 C738.940394,371.123354 667.122861,307.487601 667.122861,307.487601 L665.070931,595.903208 Z" id="Stroke-262" stroke="#FFFFFF" stroke-width="3.8805" stroke-linecap="round" stroke-linejoin="round"></path>
                                <polyline id="Fill-263" fill="#F47824" points="667.122861 307.487601 667.122861 225.376951 658.915143 218.192269 658.915143 307.487601 667.122861 307.487601"></polyline>
                                <polygon id="Stroke-264" stroke="#FFFFFF" stroke-width="3.8805" stroke-linecap="round" stroke-linejoin="round" points="667.122861 307.487601 667.122861 225.376951 658.915143 218.192269 658.915143 307.487601"></polygon>
                                <path d="M683.85818,418.336977 L678.408473,335.199945 C678.408473,335.199945 714.247022,367.673458 737.616003,418.336977 L683.85818,418.336977" id="Fill-265" fill="#F47824"></path>
                                <path d="M683.85818,418.336977 L678.408473,335.199945 C678.408473,335.199945 714.247022,367.673458 737.616003,418.336977 L683.85818,418.336977 Z" id="Stroke-266" stroke="#FFFFFF" stroke-width="3.8805" stroke-linecap="round" stroke-linejoin="round"></path>
                                <path d="M687.893771,479.921916 L684.396518,426.548042 L741.199077,426.548042 C745.117638,435.945497 748.57198,445.883461 751.251971,456.313153 C753.327307,464.389578 754.8487,472.268922 755.954635,479.921916 L687.893771,479.921916" id="Fill-267" fill="#F47824"></path>
                                <path d="M687.893771,479.921916 L684.396518,426.548042 L741.199077,426.548042 C745.117638,435.945497 748.57198,445.883461 751.251971,456.313153 C753.327307,464.389578 754.8487,472.268922 755.954635,479.921916 L687.893771,479.921916 Z" id="Stroke-268" stroke="#FFFFFF" stroke-width="3.8805" stroke-linecap="round" stroke-linejoin="round"></path>
                                <path d="M691.057487,528.161922 L688.43211,488.132981 L757.002055,488.132981 C758.558557,502.625276 758.583914,516.110701 757.774455,528.161922 L691.057487,528.161922" id="Fill-271" fill="#F47824"></path>
                                <path d="M691.057487,528.161922 L688.43211,488.132981 L757.002055,488.132981 C758.558557,502.625276 758.583914,516.110701 757.774455,528.161922 L691.057487,528.161922 Z M757.080076,536.372987 L694.823909,585.639377 L757.080076,536.372987 Z M757.002055,488.132981 L691.057487,528.161922 L757.002055,488.132981 Z M741.199077,426.548042 L687.893771,479.921916 L741.199077,426.548042 Z M742.531271,433.219532 L686.103209,433.219532 L742.531271,433.219532 Z M745.096183,440.917406 L686.103209,440.917406 L745.096183,440.917406 Z M748.68706,448.615279 L686.103209,448.615279 L748.68706,448.615279 Z M751.251971,456.313153 L688.157089,456.313153 L751.251971,456.313153 Z M752.277936,464.011026 L688.157089,464.011026 L752.277936,464.011026 Z M754.329866,471.710851 L688.157089,471.710851 L754.329866,471.710851 Z M755.868813,494.291279 L690.207068,494.291279 L755.868813,494.291279 Z M755.868813,500.962769 L690.207068,500.962769 L755.868813,500.962769 Z M755.868813,507.63426 L690.207068,507.63426 L755.868813,507.63426 Z M755.868813,514.30575 L690.207068,514.30575 L755.868813,514.30575 Z M755.868813,520.97724 L692.260948,520.97724 L755.868813,520.97724 Z M755.868813,542.531286 L692.260948,542.531286 L755.868813,542.531286 Z M753.561367,549.612549 L694.055411,549.612549 L753.561367,549.612549 Z M752.535403,556.695763 L693.797945,556.695763 L752.535403,556.695763 Z M751.764954,563.777026 L694.055411,563.777026 L751.764954,563.777026 Z M750.483473,570.858289 L694.310927,570.858289 L750.483473,570.858289 Z M747.918561,577.941503 L695.081376,577.941503 L747.918561,577.941503 Z" id="Stroke-272" stroke="#FFFFFF" stroke-width="3.8805" stroke-linecap="round" stroke-linejoin="round"></path>
                                <path d="M701.884732,408.3795 C701.884732,414.030461 697.30495,418.610159 691.656292,418.610159 L642.378775,418.610159 C636.730117,418.610159 632.150336,414.030461 632.150336,408.3795 L701.884732,408.3795" id="Fill-273" fill="#F47824"></path>
                                <path d="M701.884732,408.3795 C701.884732,414.030461 697.30495,418.610159 691.656292,418.610159 L642.378775,418.610159 C636.730117,418.610159 632.150336,414.030461 632.150336,408.3795 L701.884732,408.3795 Z" id="Stroke-274" stroke="#FFFFFF" stroke-width="3.8805" stroke-linecap="round" stroke-linejoin="round"></path>
                                <polygon id="Fill-278" fill="#F47824" points="501.905474 552.90439 578.293037 552.90439 578.293037 336.524877 501.905474 336.524877"></polygon>
                                <polygon id="Stroke-279" stroke="#FFFFFF" stroke-width="3.9429" stroke-linecap="round" stroke-linejoin="round" points="501.905474 552.90439 578.293037 552.90439 578.293037 336.524877 501.905474 336.524877"></polygon>
                                <polygon id="Fill-280" fill="#F47824" points="498.880243 345.604269 582.829908 345.604269 582.829908 331.984205 498.880243 331.984205"></polygon>
                                <polygon id="Stroke-281" stroke="#FFFFFF" stroke-width="3.8805" stroke-linecap="round" stroke-linejoin="round" points="498.880243 345.604269 582.829908 345.604269 582.829908 331.984205 498.880243 331.984205"></polygon>
                                <path d="M512.988234,345.625734 L512.988234,553.585393 M526.048805,345.625734 L526.048805,553.585393 M539.107424,345.625734 L539.107424,553.585393 M552.167995,345.625734 L552.167995,553.585393 M565.228565,345.625734 L565.228565,553.585393" id="Stroke-282" stroke="#FFFFFF" stroke-width="3.7284" stroke-linecap="round" stroke-linejoin="round"></path>
                                <line x1="518.933368" y1="291.032299" x2="518.933368" y2="330.842695" id="Fill-283" fill="#F47824"></line>
                                <line x1="518.933368" y1="291.032299" x2="518.933368" y2="330.842695" id="Stroke-284" stroke="#FFFFFF" stroke-width="3.8805" stroke-linecap="round" stroke-linejoin="round"></line>
                                <line x1="535.432676" y1="301.713708" x2="535.432676" y2="330.842695" id="Fill-285" fill="#F47824"></line>
                                <line x1="535.432676" y1="301.713708" x2="535.432676" y2="330.842695" id="Stroke-286" stroke="#FFFFFF" stroke-width="3.8805" stroke-linecap="round" stroke-linejoin="round"></line>
                                <polygon id="Fill-287" fill="#F47824" points="342.949853 572.61836 368.610675 572.61836 368.610675 355.347104 342.949853 355.347104"></polygon>
                                <polygon id="Stroke-288" stroke="#FFFFFF" stroke-width="3.8805" stroke-linecap="round" stroke-linejoin="round" points="342.949853 572.61836 368.610675 572.61836 368.610675 355.347104 342.949853 355.347104"></polygon>
                                <path d="M377.372336,379.139289 C377.372336,382.598942 374.571414,385.401006 371.113171,385.401006 L340.445407,385.401006 C336.989115,385.401006 334.186242,382.598942 334.186242,379.139289 C334.186242,375.681588 336.989115,372.877571 340.445407,372.877571 L371.113171,372.877571 C374.571414,372.877571 377.372336,375.681588 377.372336,379.139289" id="Fill-289" fill="#F47824"></path>
                                <path d="M377.372336,379.139289 C377.372336,382.598942 374.571414,385.401006 371.113171,385.401006 L340.445407,385.401006 C336.989115,385.401006 334.186242,382.598942 334.186242,379.139289 C334.186242,375.681588 336.989115,372.877571 340.445407,372.877571 L371.113171,372.877571 C374.571414,372.877571 377.372336,375.681588 377.372336,379.139289 Z" id="Stroke-290" stroke="#FFFFFF" stroke-width="3.8805" stroke-linecap="round" stroke-linejoin="round"></path>
                                <polyline id="Fill-291" fill="#F47824" points="337.349958 359.103354 355.780264 327.170351 374.20862 359.103354 337.349958 359.103354"></polyline>
                                <polygon id="Stroke-292" stroke="#FFFFFF" stroke-width="3.8805" stroke-linecap="round" stroke-linejoin="round" points="337.349958 359.103354 355.780264 327.170351 374.20862 359.103354"></polygon>
                                <path d="M359.055159,421.092211 L359.055159,395.418974 C359.055159,392.999364 357.092953,391.036357 354.674329,391.036357 C352.253754,391.036357 350.291548,392.999364 350.291548,395.418974 L350.291548,421.092211 L359.055159,421.092211" id="Fill-293" fill="#F47824"></path>
                                <path d="M359.055159,421.092211 L359.055159,395.418974 C359.055159,392.999364 357.092953,391.036357 354.674329,391.036357 C352.253754,391.036357 350.291548,392.999364 350.291548,395.418974 L350.291548,421.092211 L359.055159,421.092211 Z" id="Stroke-294" stroke="#FFFFFF" stroke-width="3.8805" stroke-linecap="round" stroke-linejoin="round"></path>
                                <polygon id="Fill-295" fill="#F47824" points="350.291548 484.936753 359.055159 484.936753 359.055159 468.030701 350.291548 468.030701"></polygon>
                                <polygon id="Stroke-296" stroke="#FFFFFF" stroke-width="3.8805" stroke-linecap="round" stroke-linejoin="round" points="350.291548 484.936753 359.055159 484.936753 359.055159 468.030701 350.291548 468.030701"></polygon>
                                <polygon id="Fill-297" fill="#F47824" points="350.291548 509.355305 359.055159 509.355305 359.055159 492.449253 350.291548 492.449253"></polygon>
                                <polygon id="Stroke-298" stroke="#FFFFFF" stroke-width="3.8805" stroke-linecap="round" stroke-linejoin="round" points="350.291548 509.355305 359.055159 509.355305 359.055159 492.449253 350.291548 492.449253"></polygon>
                                <polygon id="Fill-299" fill="#F47824" points="350.291548 533.775808 359.055159 533.775808 359.055159 516.869756 350.291548 516.869756"></polygon>
                                <polygon id="Stroke-300" stroke="#FFFFFF" stroke-width="3.8805" stroke-linecap="round" stroke-linejoin="round" points="350.291548 533.775808 359.055159 533.775808 359.055159 516.869756 350.291548 516.869756"></polygon>
                            </g>
                            <path d="M698.56105,31.5038546 C698.56105,26.8071397 694.782968,23 690.1221,23 M707,23 C702.339132,23 698.56105,26.8071397 698.56105,31.5038546 M361.43895,69 C361.43895,64.3032852 357.660868,60.4961454 353,60.4961454 M369.8779,60.4961454 C365.217032,60.4961454 361.43895,64.3032852 361.43895,69" id="Stroke-315" stroke="#F3B988" stroke-width="2" stroke-linecap="round"></path>
                            <path d="M512.56105,8.50385458 C512.56105,3.80713973 508.782968,0 504.1221,0 M521,0 C516.339132,0 512.56105,3.80713973 512.56105,8.50385458 M175.43895,46 C175.43895,41.3032852 171.660868,37.4961454 167,37.4961454 M183.8779,37.4961454 C179.217032,37.4961454 175.43895,41.3032852 175.43895,46" id="Stroke-315-Copy" stroke="#F3B988" stroke-width="2" stroke-linecap="round"></path>
                        </g>
                    </g>
                </g>
            </g>
        </g>
    </g>
</svg>