<?xml version="1.0" encoding="UTF-8"?>
<svg width="13px" height="24px" viewBox="0 0 13 24" version="1.1" xmlns="http://www.w3.org/2000/svg" xmlns:xlink="http://www.w3.org/1999/xlink">
    <title>fb</title>
    <g id="Page-1" stroke="none" stroke-width="1" fill="none" fill-rule="evenodd">
        <path d="M12.3931546,0.00494845361 L9.30903093,0 C5.84412371,0 3.60494845,2.29731959 3.60494845,5.85303093 L3.60494845,8.5516701 L0.504,8.5516701 C0.236041237,8.5516701 0.0190515464,8.76890722 0.0190515464,9.03686598 L0.0190515464,12.9468866 C0.0190515464,13.2148454 0.23628866,13.4318351 0.504,13.4318351 L3.60494845,13.4318351 L3.60494845,23.2980619 C3.60494845,23.5660206 3.82193814,23.7830103 4.08989691,23.7830103 L8.13575258,23.7830103 C8.40371134,23.7830103 8.62070103,23.5657732 8.62070103,23.2980619 L8.62070103,13.4318351 L12.246433,13.4318351 C12.5143918,13.4318351 12.7313814,13.2148454 12.7313814,12.9468866 L12.732866,9.03686598 C12.732866,8.90820619 12.6816495,8.78498969 12.5908454,8.69393814 C12.5000412,8.6028866 12.3763299,8.5516701 12.2476701,8.5516701 L8.62070103,8.5516701 L8.62070103,6.264 C8.62070103,5.16445361 8.88272165,4.60626804 10.3150515,4.60626804 L12.3926598,4.60552577 C12.6603711,4.60552577 12.8773608,4.38828866 12.8773608,4.12057732 L12.8773608,0.489896907 C12.8773608,0.22243299 12.6606186,0.00544329897 12.3931546,0.00494845361 L12.3931546,0.00494845361 Z" id="fb" fill="#FFFFFF"></path>
    </g>
</svg>