<?xml version="1.0" encoding="UTF-8"?>
<svg width="24px" height="20px" viewBox="0 0 24 20" version="1.1" xmlns="http://www.w3.org/2000/svg" xmlns:xlink="http://www.w3.org/1999/xlink">
    <title>google</title>
    <g id="Page-1" stroke="none" stroke-width="1" fill="none" fill-rule="evenodd">
        <g id="google" transform="translate(0.000000, 0.009463)" fill="#FFFFFF">
            <path d="M18.4132683,8.18356098 L9.82043902,8.18356098 L9.82043902,11.0478537 L15.0629268,11.0478537 C14.280878,13.538 11.9549268,15.3442927 9.20658537,15.3442927 C5.81673171,15.3442927 3.06887805,12.5962439 3.06887805,9.20653659 C3.06887805,5.81668293 5.81682927,3.06882927 9.20658537,3.06882927 C10.9136098,3.06882927 12.457561,3.76585366 13.5700976,4.89058537 L15.6492195,2.63068293 C13.9887317,1.00360976 11.7150732,-2.09610107e-13 9.20658537,-2.09610107e-13 C4.12195122,-4.8780488e-05 -7.10542736e-13,4.12190244 -7.10542736e-13,9.20653659 C-7.10542736e-13,14.2911707 4.12195122,18.4132195 9.20663415,18.4132195 C13.6606341,18.4132195 17.5601951,15.2500976 18.4133171,11.0479024 L18.4133171,8.18360976 L18.4132683,8.18356098 L18.4132683,8.18356098 L18.4132683,8.18356098 Z" id="Shape"></path>
            <polygon id="Shape" points="23.9930732 8.17868293 22.2354634 8.17868293 22.2354634 6.42107317 20.7288293 6.42107317 20.7288293 8.17868293 18.9712195 8.17868293 18.9712195 9.68517073 20.7288293 9.68517073 20.7288293 11.4428293 22.2354634 11.4428293 22.2354634 9.68517073 23.9930732 9.68517073"></polygon>
        </g>
    </g>
</svg>