<?xml version="1.0" encoding="UTF-8"?>
<svg width="40px" height="40px" viewBox="0 0 40 40" version="1.1" xmlns="http://www.w3.org/2000/svg" xmlns:xlink="http://www.w3.org/1999/xlink">
    <title>hire pro</title>
    <g id="Page-1" stroke="none" stroke-width="1" fill="none" fill-rule="evenodd">
        <g id="hire-pro">
            <g id="Group-21" transform="translate(2.000000, 2.000000)">
                <g id="Group-16" transform="translate(17.500000, 18.007118) scale(-1, 1) translate(-17.500000, -18.007118) translate(0.000000, 0.312202)">
                    <path d="M32.3592067,13.7548173 C32.3592067,19.9588399 27.2666667,24.9882034 20.9844394,24.9882034 C14.7024561,24.9882034 9.60967201,19.9588399 9.60967201,13.7548173 C9.60967201,7.55079473 14.7024561,2.52131073 20.9844394,2.52131073 C27.2666667,2.52131073 32.3592067,7.55079473 32.3592067,13.7548173" id="Clip-10" fill="#FFFFFF"></path>
                    <g id="Group">
                        <polyline id="Fill-6" stroke="#2C282C" stroke-width="0.915254237" fill="#E87222" points="8.50871091 25.2303427 9.57647597 26.2848362 12.8577574 23.0444595 11.7898703 21.9899661 8.50871091 25.2303427"></polyline>
                        <path d="M8.01753371,25.2040087 C8.21272485,25.2027834 8.40838342,25.2760211 8.55824408,25.424012 L8.55824408,25.424012 L9.39659937,26.2519078 C9.54597393,26.3994188 9.62169201,26.5934238 9.62336048,26.7880635 C9.62502895,26.9827033 9.55264781,27.1779778 9.40582396,27.3280278 L9.40582396,27.3280278 L2.68943007,34.1920066 C2.53978284,34.3435431 2.34405526,34.420596 2.14788999,34.4222752 C1.95239551,34.4239487 1.75671959,34.3507439 1.60687337,34.2027602 L1.60687337,34.2027602 L0.768684416,33.3749894 C0.619318127,33.2274797 0.543604366,33.03348 0.541936159,32.8388456 C0.540267952,32.6442112 0.612645298,32.4489422 0.759461223,32.2988939 L0.759461223,32.2988939 L7.47569555,25.4347832 C7.62656181,25.2819994 7.82159005,25.2052387 8.01753371,25.2040087 Z" id="Fill-7" stroke="#2C282C" stroke-width="0.915254237" fill="#E87222"></path>
                        <g id="Group-22" transform="translate(12.673745, 3.665356)">
                            <path d="M4.70147979,5.84232015 C1.70724638,1.24974765 4.43823036,-0.601551789 6.5809611,0.832602637 C7.44344775,1.41041055 8.30446987,1.32085876 9.13095347,1.23130697 C10.0194355,1.13500565 10.8680092,1.03870433 11.6357895,1.77102825 C12.812296,2.89265537 12.5757742,3.87543503 11.4945843,6.68396234 C10.3256445,9.71847834 4.70147979,5.84232015 4.70147979,5.84232015" id="Fill-9" fill="#2D272C"></path>
                            <polyline id="Fill-11" fill="#F49B90" points="6.34114416 10.9003691 10.6096415 10.9003691 11.5892906 4.27715254 5.15231121 4.27715254 6.34114416 10.9003691"></polyline>
                            <path d="M11.3561861,5.85328814 C11.3561861,5.85328814 12.1726621,5.52521281 12.1726621,6.18425612 C12.1726621,7.01734087 11.0990389,7.58876083 11.0990389,7.58876083 L11.3561861,5.85328814" id="Fill-12" fill="#F49B90"></path>
                            <path d="M5.43789474,5.8672693 C5.43789474,5.8672693 4.5644241,5.52521281 4.5644241,6.18425612 C4.5644241,7.01734087 5.74715484,7.58876083 5.74715484,7.58876083 L5.43789474,5.8672693" id="Fill-13" fill="#F49B90"></path>
                            <path d="M8.08064073,8.18826365 C8.24967201,7.45377024 8.35084668,6.81340866 8.3558505,6.50919774 C8.22684973,6.78568738 8.03902365,7.4067646 7.8703585,8.14089642 C7.81678108,8.3893032 7.76613272,8.62830885 7.72610221,8.81428249 C7.82849733,8.82187571 7.92784134,8.82970998 8.02425629,8.8373032 C8.08564455,8.84043691 8.14422578,8.84332957 8.2010984,8.84646328 C8.31520976,8.8500791 8.42053394,8.85309228 8.51646072,8.85598493 C8.70819222,8.85875706 8.86257818,8.85441808 8.972418,8.84284746 C8.86721587,8.8099435 8.71710145,8.77438795 8.5285431,8.7393145 C8.43408085,8.72256121 8.33009916,8.70484369 8.2179405,8.68543879 C8.16167811,8.67724294 8.10297483,8.66820339 8.04317315,8.65928437 C7.95932876,8.64819586 7.96994661,8.64699058 7.96530892,8.64458004 C7.96897025,8.63590207 7.96897025,8.64277213 7.97421815,8.626742 C7.98520214,8.58299058 7.99643021,8.53706968 8.00863463,8.48970245 C8.03157895,8.39412429 8.05586575,8.29203766 8.08064073,8.18826365" id="Fill-14" fill="#F77F71"></path>
                            <polygon id="Fill-15" fill="#F49B90" points="7.3851106 12.5382147 9.47353166 12.5382147 9.47353166 10.5302298 7.3851106 10.5302298"></polygon>
                            <polyline id="Fill-16" fill="#F47824" points="14.3528357 21.2621541 12.9539893 17.350629 13.5179418 21.7945597 3.43856263 21.6384661 3.79566743 17.5416648 2.28066554 21.3567397 0.163827361 19.7858109 1.99368421 11.9307571 14.6595576 11.9307571 16.51001 19.9479867"></polyline>
                            <path d="M9.5139283,11.9307571 L10.470267,13.5120753 L8.54343249,13.3774463 C8.54343249,13.3774463 8.3536537,12.2611224 8.95496568,11.9307571 L9.5139283,11.9307571" id="Fill-17" fill="#F47824"></path>
                            <polyline id="Fill-18" fill="#F47824" points="8.16302059 13.2903051 6.4866209 13.7238418 7.30114416 11.9307571 8.16302059 11.9307571 8.16302059 13.2903051"></polyline>
                            <path d="M9.25568268,11.9307571 C9.25568268,11.9307571 8.51194508,15.2614087 7.53046529,11.9307571 L9.25568268,11.9307571" id="Fill-19" fill="#FFFFFF"></path>
                            <path d="M8.54343249,13.3774463 L9.65061785,22.430855 L8.31069413,23.7793145 L6.89095347,22.4506215 L8.16302059,13.2903051 C8.16302059,13.2903051 8.47069413,12.8864181 8.54343249,13.3774463" id="Fill-20" fill="#FFFFFF"></path>
                        </g>
                        <path d="M20.9844394,25.3479774 C14.5412479,25.3479774 9.31777269,20.1575383 9.31777269,13.7548193 C9.31777269,7.35210019 14.5412479,2.16153672 20.9844394,2.16153672 C27.4278812,2.16153672 32.651106,7.35210019 32.651106,13.7548193 C32.651106,20.1575383 27.4278812,25.3479774 20.9844394,25.3479774 Z M20.9844394,0 C13.2922349,0 7.05650648,6.15846328 7.05650648,13.7548173 C7.05650648,21.3512919 13.2922349,27.5096347 20.9844394,27.5096347 C28.6767658,27.5096347 34.9123722,21.3512919 34.9123722,13.7548173 C34.9123722,6.15846328 28.6767658,0 20.9844394,0 L20.9844394,0 Z" id="Fill-23" stroke="#2D272C" stroke-width="0.915254237" fill="#FFFFFF"></path>
                    </g>
                </g>
            </g>
            <rect id="Rectangle-Copy-10" x="0" y="0" width="40" height="40"></rect>
        </g>
    </g>
</svg>