<?xml version="1.0" encoding="UTF-8"?>
<svg width="24px" height="24px" viewBox="0 0 24 24" version="1.1" xmlns="http://www.w3.org/2000/svg" xmlns:xlink="http://www.w3.org/1999/xlink">
    <title>insta</title>
    <g id="Page-1" stroke="none" stroke-width="1" fill="none" fill-rule="evenodd">
        <path d="M3.06146939,0 L20.7903673,0 C22.4740408,0 23.8515918,1.24653061 23.8515918,3.06122449 L23.8515918,20.7906122 C23.8515918,22.6053061 22.4740408,23.8518367 20.7903673,23.8518367 L3.06146939,23.8518367 C1.37730612,23.8518367 0,22.6053061 0,20.7906122 L0,3.06122449 C0,1.24653061 1.37730612,0 3.06146939,0 L3.06146939,0 L3.06146939,0 Z M17.3750204,2.65004082 C16.7843265,2.65004082 16.3016327,3.13297959 16.3016327,3.72391837 L16.3016327,6.29412245 C16.3016327,6.88481633 16.7843265,7.368 17.3750204,7.368 L20.0708571,7.368 C20.661551,7.368 21.1447347,6.88481633 21.1447347,6.29412245 L21.1447347,3.72391837 C21.1447347,3.13297959 20.661551,2.65004082 20.0708571,2.65004082 L17.3750204,2.65004082 L17.3750204,2.65004082 L17.3750204,2.65004082 Z M21.156,10.0868571 L19.0567347,10.0868571 C19.2553469,10.7353469 19.3628571,11.4222857 19.3628571,12.1329796 C19.3628571,16.1003265 16.0430204,19.3163265 11.9485714,19.3163265 C7.85436735,19.3163265 4.53502041,16.1003265 4.53502041,12.1329796 C4.53502041,11.4217959 4.64228571,10.735102 4.84114286,10.0868571 L2.65053061,10.0868571 L2.65053061,20.1622041 C2.65053061,20.6835918 3.07714286,21.110449 3.59877551,21.110449 L20.2082449,21.110449 C20.7298776,21.110449 21.1564898,20.6838367 21.1564898,20.1622041 L21.1564898,10.0868571 L21.156,10.0868571 L21.156,10.0868571 Z M11.9483265,7.23257143 C9.30293878,7.23257143 7.15812245,9.31053061 7.15812245,11.8741224 C7.15812245,14.4377143 9.30293878,16.5156735 11.9483265,16.5156735 C14.5939592,16.5156735 16.7390204,14.4377143 16.7390204,11.8741224 C16.7390204,9.31053061 14.5942041,7.23257143 11.9483265,7.23257143 L11.9483265,7.23257143 Z" id="insta" fill="#FFFFFF"></path>
    </g>
</svg>